%TF.GenerationSoftware,KiCad,Pcbnew,9.0.0*%
%TF.CreationDate,2025-05-24T18:13:52+02:00*%
%TF.ProjectId,tube_screamer,74756265-5f73-4637-9265-616d65722e6b,rev?*%
%TF.SameCoordinates,Original*%
%TF.FileFunction,Copper,L2,Bot*%
%TF.FilePolarity,Positive*%
%FSLAX46Y46*%
G04 Gerber Fmt 4.6, Leading zero omitted, Abs format (unit mm)*
G04 Created by KiCad (PCBNEW 9.0.0) date 2025-05-24 18:13:52*
%MOMM*%
%LPD*%
G01*
G04 APERTURE LIST*
G04 Aperture macros list*
%AMRoundRect*
0 Rectangle with rounded corners*
0 $1 Rounding radius*
0 $2 $3 $4 $5 $6 $7 $8 $9 X,Y pos of 4 corners*
0 Add a 4 corners polygon primitive as box body*
4,1,4,$2,$3,$4,$5,$6,$7,$8,$9,$2,$3,0*
0 Add four circle primitives for the rounded corners*
1,1,$1+$1,$2,$3*
1,1,$1+$1,$4,$5*
1,1,$1+$1,$6,$7*
1,1,$1+$1,$8,$9*
0 Add four rect primitives between the rounded corners*
20,1,$1+$1,$2,$3,$4,$5,0*
20,1,$1+$1,$4,$5,$6,$7,0*
20,1,$1+$1,$6,$7,$8,$9,0*
20,1,$1+$1,$8,$9,$2,$3,0*%
G04 Aperture macros list end*
%TA.AperFunction,ComponentPad*%
%ADD10C,2.500000*%
%TD*%
%TA.AperFunction,ComponentPad*%
%ADD11R,3.000000X3.000000*%
%TD*%
%TA.AperFunction,ComponentPad*%
%ADD12C,3.000000*%
%TD*%
%TA.AperFunction,ComponentPad*%
%ADD13C,3.600000*%
%TD*%
%TA.AperFunction,ConnectorPad*%
%ADD14C,5.500000*%
%TD*%
%TA.AperFunction,ComponentPad*%
%ADD15RoundRect,1.000000X1.000000X1.500000X-1.000000X1.500000X-1.000000X-1.500000X1.000000X-1.500000X0*%
%TD*%
%TA.AperFunction,ComponentPad*%
%ADD16RoundRect,1.000000X-1.000000X-1.500000X1.000000X-1.500000X1.000000X1.500000X-1.000000X1.500000X0*%
%TD*%
%TA.AperFunction,ComponentPad*%
%ADD17RoundRect,0.900000X1.800000X0.600000X-1.800000X0.600000X-1.800000X-0.600000X1.800000X-0.600000X0*%
%TD*%
%TA.AperFunction,ComponentPad*%
%ADD18RoundRect,0.250000X0.600000X-0.600000X0.600000X0.600000X-0.600000X0.600000X-0.600000X-0.600000X0*%
%TD*%
%TA.AperFunction,ComponentPad*%
%ADD19C,1.700000*%
%TD*%
%TA.AperFunction,ComponentPad*%
%ADD20RoundRect,0.900000X-1.800000X-0.600000X1.800000X-0.600000X1.800000X0.600000X-1.800000X0.600000X0*%
%TD*%
%TA.AperFunction,ComponentPad*%
%ADD21R,1.600000X1.600000*%
%TD*%
%TA.AperFunction,ComponentPad*%
%ADD22C,1.600000*%
%TD*%
%TA.AperFunction,ComponentPad*%
%ADD23R,4.600000X2.000000*%
%TD*%
%TA.AperFunction,ComponentPad*%
%ADD24O,4.200000X2.000000*%
%TD*%
%TA.AperFunction,ComponentPad*%
%ADD25O,2.000000X4.200000*%
%TD*%
%TA.AperFunction,ViaPad*%
%ADD26C,0.800000*%
%TD*%
%TA.AperFunction,Conductor*%
%ADD27C,0.500000*%
%TD*%
%TA.AperFunction,Conductor*%
%ADD28C,1.000000*%
%TD*%
%TA.AperFunction,Conductor*%
%ADD29C,0.400000*%
%TD*%
G04 APERTURE END LIST*
D10*
%TO.P,J8,1,Pin_1*%
%TO.N,BAT-*%
X68500000Y-106900000D03*
%TD*%
D11*
%TO.P,BT1,1,+*%
%TO.N,BAT+*%
X75000000Y-94100000D03*
D12*
%TO.P,BT1,2,-*%
%TO.N,BAT-*%
X75000000Y-106800000D03*
%TD*%
D13*
%TO.P,H2,1*%
%TO.N,N/C*%
X125000000Y-55000000D03*
D14*
X125000000Y-55000000D03*
%TD*%
D13*
%TO.P,H3,1*%
%TO.N,N/C*%
X55000000Y-145000000D03*
D14*
X55000000Y-145000000D03*
%TD*%
D10*
%TO.P,J7,1,Pin_1*%
%TO.N,BAT+*%
X68500000Y-94150000D03*
%TD*%
D15*
%TO.P,SW1,1,A*%
%TO.N,/SW_ON*%
X82900000Y-120500000D03*
D16*
%TO.P,SW1,2,B*%
%TO.N,/SW_MID*%
X90000000Y-120500000D03*
D15*
%TO.P,SW1,3,C*%
%TO.N,IN_BUFF*%
X97100000Y-120500000D03*
D16*
%TO.P,SW1,4,A*%
%TO.N,unconnected-(SW1B-A-Pad4)*%
X97100000Y-129500000D03*
%TO.P,SW1,5,B*%
%TO.N,/RED_LED*%
X90000000Y-129500000D03*
%TO.P,SW1,6,C*%
%TO.N,9V*%
X82900000Y-129500000D03*
%TD*%
D13*
%TO.P,H5,1*%
%TO.N,N/C*%
X125000000Y-145000000D03*
D14*
X125000000Y-145000000D03*
%TD*%
D17*
%TO.P,J2,R*%
%TO.N,unconnected-(J2-PadR)*%
X60825000Y-133115000D03*
%TO.P,J2,RN*%
%TO.N,unconnected-(J2-PadRN)*%
X60825000Y-116885000D03*
%TO.P,J2,S*%
%TO.N,0*%
X54475000Y-133115000D03*
%TO.P,J2,SN*%
%TO.N,unconnected-(J2-PadSN)*%
X54475000Y-116885000D03*
%TO.P,J2,T*%
%TO.N,/OUTPUT*%
X67175000Y-133115000D03*
%TO.P,J2,TN*%
%TO.N,unconnected-(J2-PadTN)*%
X67175000Y-116885000D03*
%TD*%
D13*
%TO.P,H4,1*%
%TO.N,N/C*%
X90000000Y-145000000D03*
D14*
X90000000Y-145000000D03*
%TD*%
D18*
%TO.P,J9,1,VCC*%
%TO.N,9V*%
X81210000Y-81452500D03*
D19*
%TO.P,J9,2,Pin_2*%
%TO.N,/OVD*%
X81210000Y-78912500D03*
%TO.P,J9,3,GND*%
%TO.N,0*%
X83750000Y-81452500D03*
%TO.P,J9,4,Pin_4*%
%TO.N,/OVD*%
X83750000Y-78912500D03*
%TO.P,J9,5,Pin_5*%
%TO.N,/TON_HIGH*%
X86290000Y-81452500D03*
%TO.P,J9,6,Pin_6*%
%TO.N,Net-(J9A-Pin_6)*%
X86290000Y-78912500D03*
%TO.P,J9,7,Pin_7*%
%TO.N,Net-(J9B-Pin_7)*%
X88830000Y-81452500D03*
%TO.P,J9,8,Pin_8*%
%TO.N,Net-(J9D-Pin_8)*%
X88830000Y-78912500D03*
%TO.P,J9,9,Pin_9*%
%TO.N,/TON_LOW*%
X91370000Y-81452500D03*
%TO.P,J9,10,Pin_10*%
%TO.N,Net-(J9E-Pin_10)*%
X91370000Y-78912500D03*
%TO.P,J9,11,Pin_11*%
%TO.N,unconnected-(J9G-Pin_11-Pad11)*%
X93910000Y-81452500D03*
%TO.P,J9,12,Pin_12*%
%TO.N,OP_OUT*%
X93910000Y-78912500D03*
%TO.P,J9,13,Pin_13*%
%TO.N,unconnected-(J9G-Pin_13-Pad13)*%
X96450000Y-81452500D03*
%TO.P,J9,14,Pin_14*%
%TO.N,/SW_ON*%
X96450000Y-78912500D03*
%TO.P,J9,15,Pin_15*%
%TO.N,unconnected-(J9G-Pin_15-Pad15)*%
X98990000Y-81452500D03*
%TO.P,J9,16,Pin_16*%
%TO.N,0*%
X98990000Y-78912500D03*
%TD*%
D20*
%TO.P,J1,R*%
%TO.N,unconnected-(J1-PadR)*%
X119175000Y-116885000D03*
%TO.P,J1,RN*%
%TO.N,unconnected-(J1-PadRN)*%
X119175000Y-133115000D03*
%TO.P,J1,S*%
%TO.N,0*%
X125525000Y-116885000D03*
%TO.P,J1,SN*%
%TO.N,IN_CONNECT*%
X125525000Y-133115000D03*
%TO.P,J1,T*%
%TO.N,/INPUT*%
X112825000Y-116885000D03*
%TO.P,J1,TN*%
%TO.N,unconnected-(J1-PadTN)*%
X112825000Y-133115000D03*
%TD*%
D21*
%TO.P,C8,1*%
%TO.N,Net-(Q3-B)*%
X68152651Y-86100000D03*
D22*
%TO.P,C8,2*%
%TO.N,0*%
X64652651Y-86100000D03*
%TD*%
D23*
%TO.P,J6,1*%
%TO.N,CONN+*%
X65850000Y-64250000D03*
D24*
%TO.P,J6,2*%
%TO.N,CONN-*%
X65850000Y-57950000D03*
D25*
%TO.P,J6,3*%
%TO.N,BAT-*%
X61050000Y-61350000D03*
%TD*%
D21*
%TO.P,C2,1*%
%TO.N,9V*%
X63862500Y-73550000D03*
D22*
%TO.P,C2,2*%
%TO.N,0*%
X63862500Y-70050000D03*
%TD*%
D13*
%TO.P,H1,1*%
%TO.N,N/C*%
X55000000Y-55000000D03*
D14*
X55000000Y-55000000D03*
%TD*%
D26*
%TO.N,0*%
X62500000Y-110600000D03*
X71862500Y-80950000D03*
X81300000Y-75500000D03*
X85100000Y-75500000D03*
X61200000Y-79400000D03*
X94300000Y-95400000D03*
X83700000Y-88300000D03*
X81900000Y-63300000D03*
X70900000Y-91000000D03*
X86500000Y-107000000D03*
X76600000Y-53000000D03*
X117000000Y-101700000D03*
X105800000Y-61400000D03*
X89300000Y-69900000D03*
X88500000Y-75200000D03*
X105300000Y-70600000D03*
X72862500Y-75350000D03*
X53600000Y-102900000D03*
X82400000Y-54575000D03*
X98000000Y-53342632D03*
X76200000Y-125100000D03*
X92700000Y-70000000D03*
X76600000Y-65200000D03*
X110700000Y-89700000D03*
X64500000Y-81000000D03*
X62600000Y-54000000D03*
X68500000Y-103800000D03*
X57500000Y-107100000D03*
X56900000Y-78600000D03*
X111800000Y-72900000D03*
X75800000Y-64500000D03*
X53200000Y-70200000D03*
X59700000Y-91700000D03*
X116300000Y-92000000D03*
X54000000Y-63000000D03*
X102300000Y-64900000D03*
X117200000Y-76700000D03*
X86000000Y-57400000D03*
X111400000Y-102500000D03*
X74200000Y-111200000D03*
X90800000Y-61300000D03*
X106937500Y-60000000D03*
X108400000Y-112400000D03*
X103800000Y-103400000D03*
X84000000Y-54500000D03*
X96900000Y-62800000D03*
X72762500Y-73650000D03*
%TO.N,Net-(D1-K)*%
X99500000Y-60400000D03*
X99500000Y-56977632D03*
%TO.N,9V*%
X78100000Y-113200000D03*
X78100000Y-118400000D03*
X111700000Y-62900000D03*
X92500000Y-62100000D03*
X74652500Y-81452500D03*
X92500000Y-66100000D03*
X111700000Y-53600000D03*
X80700000Y-59400000D03*
X92900000Y-51274000D03*
X80700000Y-53900000D03*
%TO.N,/TON_LOW*%
X95100000Y-66100000D03*
X95100000Y-63400000D03*
%TO.N,OP_OUT*%
X93900000Y-66100000D03*
X93900000Y-63400000D03*
%TO.N,/SW_MID*%
X78400000Y-89300000D03*
X81500000Y-92400000D03*
%TO.N,CONN+*%
X57937500Y-67100000D03*
%TO.N,IN_CONNECT*%
X74700000Y-129800000D03*
X71900000Y-127000000D03*
%TO.N,Net-(J9D-Pin_8)*%
X87600000Y-98800000D03*
X84900000Y-101500000D03*
%TD*%
D27*
%TO.N,Net-(D1-K)*%
X99500000Y-60400000D02*
X99500000Y-56977632D01*
D28*
%TO.N,BAT-*%
X52793792Y-91193792D02*
X68500000Y-106900000D01*
X55211700Y-61350000D02*
X61050000Y-61350000D01*
X51200000Y-65361700D02*
X51200000Y-87346036D01*
X52793792Y-91193792D02*
G75*
G02*
X51199989Y-87346036I3847808J3847792D01*
G01*
X52375000Y-62525000D02*
G75*
G03*
X51200000Y-65361700I2836700J-2836700D01*
G01*
X52375000Y-62525000D02*
G75*
G02*
X55211700Y-61350000I2836700J-2836700D01*
G01*
%TO.N,9V*%
X92500000Y-61583579D02*
X92500000Y-62100000D01*
X92900000Y-51274000D02*
X92900000Y-59917157D01*
X111700000Y-53600000D02*
X111700000Y-62900000D01*
X92500000Y-61116421D02*
X92500000Y-60882842D01*
X78100000Y-118400000D02*
X78100000Y-113200000D01*
X80700000Y-59400000D02*
X80700000Y-53900000D01*
X92500000Y-61116421D02*
X92500000Y-61583579D01*
X74652500Y-81452500D02*
X81210000Y-81452500D01*
X92500000Y-62100000D02*
X92500000Y-63600000D01*
X92500000Y-66100000D02*
X92500000Y-63600000D01*
X92700000Y-60400000D02*
G75*
G03*
X92500018Y-60882842I482800J-482800D01*
G01*
X92700000Y-60400000D02*
G75*
G03*
X92899953Y-59917157I-482900J482800D01*
G01*
D29*
%TO.N,/TON_LOW*%
X95100000Y-66100000D02*
X95100000Y-63400000D01*
D27*
%TO.N,OP_OUT*%
X93900000Y-66100000D02*
X93900000Y-63400000D01*
D28*
%TO.N,/SW_MID*%
X78400000Y-89300000D02*
X81500000Y-92400000D01*
%TO.N,CONN+*%
X57937500Y-67100000D02*
X59818750Y-67100000D01*
X65200000Y-64250000D02*
X65850000Y-64250000D01*
X63030244Y-65769755D02*
X64090380Y-64709619D01*
X65200000Y-64250000D02*
G75*
G03*
X64090389Y-64709628I0J-1569200D01*
G01*
X63030244Y-65769755D02*
G75*
G02*
X59818750Y-67100046I-3211544J3211455D01*
G01*
%TO.N,IN_CONNECT*%
X74700000Y-129800000D02*
X71900000Y-127000000D01*
%TO.N,Net-(J9D-Pin_8)*%
X84900000Y-101500000D02*
X87600000Y-98800000D01*
%TD*%
%TA.AperFunction,Conductor*%
%TO.N,0*%
G36*
X82551444Y-79566499D02*
G01*
X82590486Y-79611556D01*
X82594951Y-79620320D01*
X82719890Y-79792286D01*
X82870213Y-79942609D01*
X83042179Y-80067548D01*
X83042181Y-80067549D01*
X83042184Y-80067551D01*
X83051493Y-80072294D01*
X83102290Y-80120266D01*
X83119087Y-80188087D01*
X83096552Y-80254222D01*
X83051505Y-80293260D01*
X83042446Y-80297876D01*
X83042440Y-80297880D01*
X82988282Y-80337227D01*
X82988282Y-80337228D01*
X83620591Y-80969537D01*
X83557007Y-80986575D01*
X83442993Y-81052401D01*
X83349901Y-81145493D01*
X83284075Y-81259507D01*
X83267037Y-81323091D01*
X82630556Y-80686610D01*
X82577764Y-80675520D01*
X82528007Y-80626469D01*
X82518708Y-80605274D01*
X82494814Y-80533166D01*
X82402712Y-80383844D01*
X82278656Y-80259788D01*
X82183253Y-80200943D01*
X82129336Y-80167687D01*
X82129325Y-80167682D01*
X82118773Y-80164186D01*
X82061328Y-80124413D01*
X82034506Y-80059897D01*
X82046822Y-79991121D01*
X82084903Y-79946156D01*
X82089788Y-79942607D01*
X82089788Y-79942606D01*
X82089792Y-79942604D01*
X82240104Y-79792292D01*
X82240106Y-79792288D01*
X82240109Y-79792286D01*
X82365048Y-79620320D01*
X82365047Y-79620320D01*
X82365051Y-79620316D01*
X82369514Y-79611554D01*
X82417488Y-79560759D01*
X82485308Y-79543963D01*
X82551444Y-79566499D01*
G37*
%TD.AperFunction*%
%TA.AperFunction,Conductor*%
G36*
X85091444Y-79566499D02*
G01*
X85130486Y-79611556D01*
X85134951Y-79620320D01*
X85259890Y-79792286D01*
X85410213Y-79942609D01*
X85582182Y-80067550D01*
X85590946Y-80072016D01*
X85641742Y-80119991D01*
X85658536Y-80187812D01*
X85635998Y-80253947D01*
X85590946Y-80292984D01*
X85582182Y-80297449D01*
X85410213Y-80422390D01*
X85259890Y-80572713D01*
X85134949Y-80744682D01*
X85130202Y-80753999D01*
X85082227Y-80804793D01*
X85014405Y-80821587D01*
X84948271Y-80799048D01*
X84909234Y-80753995D01*
X84904626Y-80744952D01*
X84865270Y-80690782D01*
X84865269Y-80690782D01*
X84232962Y-81323090D01*
X84215925Y-81259507D01*
X84150099Y-81145493D01*
X84057007Y-81052401D01*
X83942993Y-80986575D01*
X83879409Y-80969537D01*
X84511716Y-80337228D01*
X84457547Y-80297873D01*
X84457547Y-80297872D01*
X84448500Y-80293263D01*
X84397706Y-80245288D01*
X84380912Y-80177466D01*
X84403451Y-80111332D01*
X84448508Y-80072293D01*
X84457816Y-80067551D01*
X84563014Y-79991121D01*
X84629786Y-79942609D01*
X84629788Y-79942606D01*
X84629792Y-79942604D01*
X84780104Y-79792292D01*
X84780106Y-79792288D01*
X84780109Y-79792286D01*
X84905048Y-79620320D01*
X84905047Y-79620320D01*
X84905051Y-79620316D01*
X84909514Y-79611554D01*
X84957488Y-79560759D01*
X85025308Y-79543963D01*
X85091444Y-79566499D01*
G37*
%TD.AperFunction*%
%TA.AperFunction,Conductor*%
G36*
X98524075Y-79105493D02*
G01*
X98589901Y-79219507D01*
X98682993Y-79312599D01*
X98797007Y-79378425D01*
X98860590Y-79395462D01*
X98228282Y-80027769D01*
X98228282Y-80027770D01*
X98282452Y-80067126D01*
X98282451Y-80067126D01*
X98291495Y-80071734D01*
X98342292Y-80119708D01*
X98359087Y-80187529D01*
X98336550Y-80253664D01*
X98291499Y-80292702D01*
X98282182Y-80297449D01*
X98110213Y-80422390D01*
X97959890Y-80572713D01*
X97834949Y-80744682D01*
X97830484Y-80753446D01*
X97782509Y-80804242D01*
X97714688Y-80821036D01*
X97648553Y-80798498D01*
X97609516Y-80753446D01*
X97605050Y-80744682D01*
X97480109Y-80572713D01*
X97329786Y-80422390D01*
X97157820Y-80297451D01*
X97149600Y-80293263D01*
X97149054Y-80292985D01*
X97098259Y-80245012D01*
X97081463Y-80177192D01*
X97103999Y-80111056D01*
X97149054Y-80072015D01*
X97157816Y-80067551D01*
X97212572Y-80027769D01*
X97329786Y-79942609D01*
X97329788Y-79942606D01*
X97329792Y-79942604D01*
X97480104Y-79792292D01*
X97480106Y-79792288D01*
X97480109Y-79792286D01*
X97565890Y-79674217D01*
X97605051Y-79620316D01*
X97609793Y-79611008D01*
X97657763Y-79560211D01*
X97725583Y-79543411D01*
X97791719Y-79565945D01*
X97830763Y-79611000D01*
X97835373Y-79620047D01*
X97874728Y-79674216D01*
X98507037Y-79041908D01*
X98524075Y-79105493D01*
G37*
%TD.AperFunction*%
%TA.AperFunction,Conductor*%
G36*
X125002562Y-50000605D02*
G01*
X125370277Y-50015814D01*
X125375906Y-50016177D01*
X125459956Y-50023530D01*
X125464429Y-50024004D01*
X125787028Y-50064216D01*
X125793169Y-50065140D01*
X125871766Y-50078999D01*
X125875594Y-50079737D01*
X126199008Y-50147549D01*
X126205622Y-50149128D01*
X126274576Y-50167604D01*
X126277787Y-50168512D01*
X126603169Y-50265383D01*
X126610157Y-50267692D01*
X126664056Y-50287310D01*
X126666678Y-50288299D01*
X126996425Y-50416967D01*
X127003729Y-50420089D01*
X127034837Y-50434595D01*
X127036641Y-50435458D01*
X127374902Y-50600823D01*
X127383883Y-50605683D01*
X127730070Y-50811966D01*
X127738638Y-50817564D01*
X128066593Y-51051719D01*
X128074668Y-51058005D01*
X128382155Y-51318433D01*
X128389695Y-51325374D01*
X128674625Y-51610304D01*
X128681566Y-51617844D01*
X128941989Y-51925325D01*
X128948284Y-51933412D01*
X129182431Y-52261355D01*
X129188037Y-52269935D01*
X129394309Y-52616105D01*
X129399186Y-52625119D01*
X129564467Y-52963206D01*
X129565450Y-52965262D01*
X129579902Y-52996255D01*
X129583036Y-53003584D01*
X129711691Y-53333300D01*
X129712696Y-53335964D01*
X129732299Y-53389822D01*
X129734622Y-53396851D01*
X129831475Y-53722173D01*
X129832405Y-53725462D01*
X129850867Y-53794364D01*
X129852453Y-53801010D01*
X129920250Y-54124350D01*
X129921005Y-54128265D01*
X129934854Y-54206807D01*
X129935786Y-54213001D01*
X129975990Y-54535538D01*
X129976470Y-54540069D01*
X129983819Y-54624067D01*
X129984185Y-54629749D01*
X129999394Y-54997437D01*
X129999500Y-55002562D01*
X129999500Y-144997437D01*
X129999394Y-145002562D01*
X129984185Y-145370249D01*
X129983819Y-145375930D01*
X129983819Y-145375931D01*
X129976470Y-145459929D01*
X129975990Y-145464460D01*
X129935786Y-145786997D01*
X129934854Y-145793191D01*
X129921005Y-145871733D01*
X129920250Y-145875648D01*
X129852453Y-146198988D01*
X129850867Y-146205634D01*
X129832405Y-146274536D01*
X129831475Y-146277825D01*
X129734622Y-146603147D01*
X129732299Y-146610176D01*
X129712696Y-146664034D01*
X129711691Y-146666698D01*
X129583036Y-146996414D01*
X129579903Y-147003741D01*
X129579902Y-147003743D01*
X129565471Y-147034691D01*
X129564489Y-147036747D01*
X129399182Y-147374889D01*
X129394304Y-147383903D01*
X129188037Y-147730064D01*
X129182431Y-147738644D01*
X128948284Y-148066587D01*
X128941989Y-148074674D01*
X128681566Y-148382155D01*
X128674625Y-148389695D01*
X128389695Y-148674625D01*
X128382155Y-148681566D01*
X128074674Y-148941989D01*
X128066587Y-148948284D01*
X127738644Y-149182431D01*
X127730064Y-149188037D01*
X127383903Y-149394304D01*
X127374889Y-149399182D01*
X127036747Y-149564489D01*
X127034691Y-149565471D01*
X127003743Y-149579902D01*
X126996414Y-149583036D01*
X126666698Y-149711691D01*
X126664034Y-149712696D01*
X126610176Y-149732299D01*
X126603147Y-149734622D01*
X126277825Y-149831475D01*
X126274536Y-149832405D01*
X126205634Y-149850867D01*
X126198988Y-149852453D01*
X125875648Y-149920250D01*
X125871733Y-149921005D01*
X125793191Y-149934854D01*
X125786997Y-149935786D01*
X125464460Y-149975990D01*
X125459929Y-149976470D01*
X125375931Y-149983819D01*
X125370249Y-149984185D01*
X125002563Y-149999394D01*
X124997438Y-149999500D01*
X55002562Y-149999500D01*
X54997437Y-149999394D01*
X54629749Y-149984185D01*
X54624067Y-149983819D01*
X54540069Y-149976470D01*
X54535538Y-149975990D01*
X54213001Y-149935786D01*
X54206807Y-149934854D01*
X54128265Y-149921005D01*
X54124350Y-149920250D01*
X53801010Y-149852453D01*
X53794364Y-149850867D01*
X53725462Y-149832405D01*
X53722173Y-149831475D01*
X53396851Y-149734622D01*
X53389822Y-149732299D01*
X53335964Y-149712696D01*
X53333300Y-149711691D01*
X53003584Y-149583036D01*
X52996255Y-149579902D01*
X52965262Y-149565450D01*
X52963206Y-149564467D01*
X52625119Y-149399186D01*
X52616105Y-149394309D01*
X52269935Y-149188037D01*
X52261355Y-149182431D01*
X51933412Y-148948284D01*
X51925325Y-148941989D01*
X51617844Y-148681566D01*
X51610304Y-148674625D01*
X51325374Y-148389695D01*
X51318433Y-148382155D01*
X51180414Y-148219196D01*
X51058005Y-148074668D01*
X51051715Y-148066587D01*
X51049996Y-148064180D01*
X50817564Y-147738638D01*
X50811962Y-147730064D01*
X50605683Y-147383883D01*
X50600817Y-147374889D01*
X50435458Y-147036641D01*
X50434595Y-147034837D01*
X50420089Y-147003729D01*
X50416962Y-146996414D01*
X50290807Y-146673106D01*
X50288299Y-146666679D01*
X50287302Y-146664034D01*
X50267692Y-146610157D01*
X50265383Y-146603169D01*
X50168512Y-146277787D01*
X50167604Y-146274576D01*
X50149128Y-146205622D01*
X50147549Y-146199008D01*
X50079737Y-145875594D01*
X50078999Y-145871766D01*
X50065140Y-145793169D01*
X50064216Y-145787028D01*
X50024004Y-145464429D01*
X50023530Y-145459956D01*
X50016177Y-145375906D01*
X50015814Y-145370277D01*
X50000606Y-145002562D01*
X50000500Y-144997438D01*
X50000500Y-144840313D01*
X51749500Y-144840313D01*
X51749500Y-145159687D01*
X51759019Y-145256340D01*
X51780803Y-145477522D01*
X51843109Y-145790754D01*
X51935820Y-146096382D01*
X52058040Y-146391446D01*
X52058042Y-146391451D01*
X52208584Y-146673094D01*
X52208601Y-146673122D01*
X52386012Y-146938638D01*
X52386029Y-146938661D01*
X52588638Y-147185540D01*
X52814459Y-147411361D01*
X52814464Y-147411365D01*
X52814465Y-147411366D01*
X53061344Y-147613975D01*
X53061351Y-147613980D01*
X53061361Y-147613987D01*
X53326877Y-147791398D01*
X53326882Y-147791401D01*
X53326894Y-147791409D01*
X53326903Y-147791413D01*
X53326905Y-147791415D01*
X53608548Y-147941957D01*
X53608550Y-147941957D01*
X53608556Y-147941961D01*
X53903619Y-148064180D01*
X54209240Y-148156889D01*
X54522477Y-148219196D01*
X54840313Y-148250500D01*
X54840316Y-148250500D01*
X55159684Y-148250500D01*
X55159687Y-148250500D01*
X55477523Y-148219196D01*
X55790760Y-148156889D01*
X56096381Y-148064180D01*
X56391444Y-147941961D01*
X56673106Y-147791409D01*
X56938656Y-147613975D01*
X57185535Y-147411366D01*
X57411366Y-147185535D01*
X57613975Y-146938656D01*
X57791409Y-146673106D01*
X57941961Y-146391444D01*
X58064180Y-146096381D01*
X58156889Y-145790760D01*
X58219196Y-145477523D01*
X58250500Y-145159687D01*
X58250500Y-144840313D01*
X86749500Y-144840313D01*
X86749500Y-145159687D01*
X86759019Y-145256340D01*
X86780803Y-145477522D01*
X86843109Y-145790754D01*
X86935820Y-146096382D01*
X87058040Y-146391446D01*
X87058042Y-146391451D01*
X87208584Y-146673094D01*
X87208601Y-146673122D01*
X87386012Y-146938638D01*
X87386029Y-146938661D01*
X87588638Y-147185540D01*
X87814459Y-147411361D01*
X87814464Y-147411365D01*
X87814465Y-147411366D01*
X88061344Y-147613975D01*
X88061351Y-147613980D01*
X88061361Y-147613987D01*
X88326877Y-147791398D01*
X88326882Y-147791401D01*
X88326894Y-147791409D01*
X88326903Y-147791413D01*
X88326905Y-147791415D01*
X88608548Y-147941957D01*
X88608550Y-147941957D01*
X88608556Y-147941961D01*
X88903619Y-148064180D01*
X89209240Y-148156889D01*
X89522477Y-148219196D01*
X89840313Y-148250500D01*
X89840316Y-148250500D01*
X90159684Y-148250500D01*
X90159687Y-148250500D01*
X90477523Y-148219196D01*
X90790760Y-148156889D01*
X91096381Y-148064180D01*
X91391444Y-147941961D01*
X91673106Y-147791409D01*
X91938656Y-147613975D01*
X92185535Y-147411366D01*
X92411366Y-147185535D01*
X92613975Y-146938656D01*
X92791409Y-146673106D01*
X92941961Y-146391444D01*
X93064180Y-146096381D01*
X93156889Y-145790760D01*
X93219196Y-145477523D01*
X93250500Y-145159687D01*
X93250500Y-144840313D01*
X121749500Y-144840313D01*
X121749500Y-145159687D01*
X121759019Y-145256340D01*
X121780803Y-145477522D01*
X121843109Y-145790754D01*
X121935820Y-146096382D01*
X122058040Y-146391446D01*
X122058042Y-146391451D01*
X122208584Y-146673094D01*
X122208601Y-146673122D01*
X122386012Y-146938638D01*
X122386029Y-146938661D01*
X122588638Y-147185540D01*
X122814459Y-147411361D01*
X122814464Y-147411365D01*
X122814465Y-147411366D01*
X123061344Y-147613975D01*
X123061351Y-147613980D01*
X123061361Y-147613987D01*
X123326877Y-147791398D01*
X123326882Y-147791401D01*
X123326894Y-147791409D01*
X123326903Y-147791413D01*
X123326905Y-147791415D01*
X123608548Y-147941957D01*
X123608550Y-147941957D01*
X123608556Y-147941961D01*
X123903619Y-148064180D01*
X124209240Y-148156889D01*
X124522477Y-148219196D01*
X124840313Y-148250500D01*
X124840316Y-148250500D01*
X125159684Y-148250500D01*
X125159687Y-148250500D01*
X125477523Y-148219196D01*
X125790760Y-148156889D01*
X126096381Y-148064180D01*
X126391444Y-147941961D01*
X126673106Y-147791409D01*
X126938656Y-147613975D01*
X127185535Y-147411366D01*
X127411366Y-147185535D01*
X127613975Y-146938656D01*
X127791409Y-146673106D01*
X127941961Y-146391444D01*
X128064180Y-146096381D01*
X128156889Y-145790760D01*
X128219196Y-145477523D01*
X128250500Y-145159687D01*
X128250500Y-144840313D01*
X128219196Y-144522477D01*
X128156889Y-144209240D01*
X128064180Y-143903619D01*
X127941961Y-143608556D01*
X127791409Y-143326894D01*
X127791398Y-143326877D01*
X127613987Y-143061361D01*
X127613980Y-143061351D01*
X127613975Y-143061344D01*
X127411366Y-142814465D01*
X127411365Y-142814464D01*
X127411361Y-142814459D01*
X127185540Y-142588638D01*
X126938661Y-142386029D01*
X126938638Y-142386012D01*
X126673122Y-142208601D01*
X126673094Y-142208584D01*
X126391451Y-142058042D01*
X126391446Y-142058040D01*
X126096382Y-141935820D01*
X125790754Y-141843109D01*
X125477521Y-141780803D01*
X125477522Y-141780803D01*
X125238141Y-141757227D01*
X125159687Y-141749500D01*
X124840313Y-141749500D01*
X124767822Y-141756639D01*
X124522477Y-141780803D01*
X124209245Y-141843109D01*
X123903617Y-141935820D01*
X123608553Y-142058040D01*
X123608548Y-142058042D01*
X123326905Y-142208584D01*
X123326877Y-142208601D01*
X123061361Y-142386012D01*
X123061338Y-142386029D01*
X122814459Y-142588638D01*
X122588638Y-142814459D01*
X122386029Y-143061338D01*
X122386012Y-143061361D01*
X122208601Y-143326877D01*
X122208584Y-143326905D01*
X122058042Y-143608548D01*
X122058040Y-143608553D01*
X121935820Y-143903617D01*
X121843109Y-144209245D01*
X121780803Y-144522477D01*
X121756639Y-144767822D01*
X121749500Y-144840313D01*
X93250500Y-144840313D01*
X93219196Y-144522477D01*
X93156889Y-144209240D01*
X93064180Y-143903619D01*
X92941961Y-143608556D01*
X92791409Y-143326894D01*
X92791398Y-143326877D01*
X92613987Y-143061361D01*
X92613980Y-143061351D01*
X92613975Y-143061344D01*
X92411366Y-142814465D01*
X92411365Y-142814464D01*
X92411361Y-142814459D01*
X92185540Y-142588638D01*
X91938661Y-142386029D01*
X91938638Y-142386012D01*
X91673122Y-142208601D01*
X91673094Y-142208584D01*
X91391451Y-142058042D01*
X91391446Y-142058040D01*
X91096382Y-141935820D01*
X90790754Y-141843109D01*
X90477521Y-141780803D01*
X90477522Y-141780803D01*
X90238141Y-141757227D01*
X90159687Y-141749500D01*
X89840313Y-141749500D01*
X89767822Y-141756639D01*
X89522477Y-141780803D01*
X89209245Y-141843109D01*
X88903617Y-141935820D01*
X88608553Y-142058040D01*
X88608548Y-142058042D01*
X88326905Y-142208584D01*
X88326877Y-142208601D01*
X88061361Y-142386012D01*
X88061338Y-142386029D01*
X87814459Y-142588638D01*
X87588638Y-142814459D01*
X87386029Y-143061338D01*
X87386012Y-143061361D01*
X87208601Y-143326877D01*
X87208584Y-143326905D01*
X87058042Y-143608548D01*
X87058040Y-143608553D01*
X86935820Y-143903617D01*
X86843109Y-144209245D01*
X86780803Y-144522477D01*
X86756639Y-144767822D01*
X86749500Y-144840313D01*
X58250500Y-144840313D01*
X58219196Y-144522477D01*
X58156889Y-144209240D01*
X58064180Y-143903619D01*
X57941961Y-143608556D01*
X57791409Y-143326894D01*
X57791398Y-143326877D01*
X57613987Y-143061361D01*
X57613980Y-143061351D01*
X57613975Y-143061344D01*
X57411366Y-142814465D01*
X57411365Y-142814464D01*
X57411361Y-142814459D01*
X57185540Y-142588638D01*
X56938661Y-142386029D01*
X56938638Y-142386012D01*
X56673122Y-142208601D01*
X56673094Y-142208584D01*
X56391451Y-142058042D01*
X56391446Y-142058040D01*
X56096382Y-141935820D01*
X55790754Y-141843109D01*
X55477521Y-141780803D01*
X55477522Y-141780803D01*
X55238141Y-141757227D01*
X55159687Y-141749500D01*
X54840313Y-141749500D01*
X54767822Y-141756639D01*
X54522477Y-141780803D01*
X54209245Y-141843109D01*
X53903617Y-141935820D01*
X53608553Y-142058040D01*
X53608548Y-142058042D01*
X53326905Y-142208584D01*
X53326877Y-142208601D01*
X53061361Y-142386012D01*
X53061338Y-142386029D01*
X52814459Y-142588638D01*
X52588638Y-142814459D01*
X52386029Y-143061338D01*
X52386012Y-143061361D01*
X52208601Y-143326877D01*
X52208584Y-143326905D01*
X52058042Y-143608548D01*
X52058040Y-143608553D01*
X51935820Y-143903617D01*
X51843109Y-144209245D01*
X51780803Y-144522477D01*
X51756639Y-144767822D01*
X51749500Y-144840313D01*
X50000500Y-144840313D01*
X50000500Y-132419706D01*
X51275000Y-132419706D01*
X51275000Y-133810293D01*
X51275001Y-133810332D01*
X51277844Y-133863848D01*
X51277844Y-133863849D01*
X51323095Y-134097821D01*
X51407240Y-134320793D01*
X51527854Y-134526330D01*
X51527859Y-134526337D01*
X51681469Y-134708528D01*
X51681471Y-134708530D01*
X51863662Y-134862140D01*
X51863669Y-134862145D01*
X52069206Y-134982759D01*
X52203142Y-135033305D01*
X52203143Y-135033305D01*
X53421448Y-133815000D01*
X54128552Y-133815000D01*
X52828551Y-135114999D01*
X52828552Y-135115000D01*
X56121448Y-135115000D01*
X56121448Y-135114999D01*
X54821448Y-133815000D01*
X55528552Y-133815000D01*
X56746855Y-135033304D01*
X56880793Y-134982759D01*
X57086330Y-134862145D01*
X57086337Y-134862140D01*
X57268528Y-134708530D01*
X57268530Y-134708528D01*
X57422140Y-134526337D01*
X57422145Y-134526330D01*
X57542764Y-134320785D01*
X57593671Y-134272928D01*
X57662370Y-134260191D01*
X57727049Y-134286617D01*
X57756656Y-134320785D01*
X57877444Y-134526620D01*
X57877449Y-134526627D01*
X58031114Y-134708883D01*
X58031116Y-134708885D01*
X58213372Y-134862550D01*
X58213379Y-134862555D01*
X58418992Y-134983213D01*
X58642038Y-135067387D01*
X58876101Y-135112655D01*
X58929662Y-135115500D01*
X58929670Y-135115500D01*
X62720330Y-135115500D01*
X62720338Y-135115500D01*
X62773899Y-135112655D01*
X63007962Y-135067387D01*
X63231008Y-134983213D01*
X63436621Y-134862555D01*
X63618884Y-134708884D01*
X63619183Y-134708530D01*
X63772550Y-134526627D01*
X63772550Y-134526626D01*
X63772555Y-134526621D01*
X63893054Y-134321279D01*
X63943961Y-134273422D01*
X64012660Y-134260685D01*
X64077339Y-134287111D01*
X64106946Y-134321279D01*
X64227444Y-134526620D01*
X64227449Y-134526627D01*
X64381114Y-134708883D01*
X64381116Y-134708885D01*
X64563372Y-134862550D01*
X64563379Y-134862555D01*
X64768992Y-134983213D01*
X64992038Y-135067387D01*
X65226101Y-135112655D01*
X65279662Y-135115500D01*
X65279670Y-135115500D01*
X69070330Y-135115500D01*
X69070338Y-135115500D01*
X69123899Y-135112655D01*
X69357962Y-135067387D01*
X69581008Y-134983213D01*
X69786621Y-134862555D01*
X69968884Y-134708884D01*
X69969183Y-134708530D01*
X70122550Y-134526627D01*
X70122550Y-134526626D01*
X70122555Y-134526621D01*
X70243213Y-134321008D01*
X70327387Y-134097962D01*
X70372655Y-133863899D01*
X70375500Y-133810338D01*
X70375500Y-132419662D01*
X70372655Y-132366101D01*
X70327387Y-132132038D01*
X70243213Y-131908992D01*
X70122555Y-131703379D01*
X70122550Y-131703372D01*
X69968885Y-131521116D01*
X69968883Y-131521114D01*
X69786627Y-131367449D01*
X69786620Y-131367444D01*
X69581007Y-131246786D01*
X69489008Y-131212068D01*
X69357962Y-131162613D01*
X69357957Y-131162612D01*
X69123901Y-131117345D01*
X69070368Y-131114501D01*
X69070345Y-131114500D01*
X69070338Y-131114500D01*
X65279662Y-131114500D01*
X65279654Y-131114500D01*
X65279631Y-131114501D01*
X65226098Y-131117345D01*
X65226097Y-131117345D01*
X64992042Y-131162612D01*
X64992040Y-131162612D01*
X64992038Y-131162613D01*
X64929444Y-131186235D01*
X64768992Y-131246786D01*
X64563379Y-131367444D01*
X64563372Y-131367449D01*
X64381116Y-131521114D01*
X64381114Y-131521116D01*
X64227449Y-131703372D01*
X64227444Y-131703379D01*
X64106946Y-131908720D01*
X64056039Y-131956577D01*
X63987340Y-131969314D01*
X63922660Y-131942888D01*
X63893054Y-131908720D01*
X63772555Y-131703379D01*
X63772550Y-131703372D01*
X63618885Y-131521116D01*
X63618883Y-131521114D01*
X63436627Y-131367449D01*
X63436620Y-131367444D01*
X63231007Y-131246786D01*
X63139008Y-131212068D01*
X63007962Y-131162613D01*
X63007957Y-131162612D01*
X62773901Y-131117345D01*
X62720368Y-131114501D01*
X62720345Y-131114500D01*
X62720338Y-131114500D01*
X58929662Y-131114500D01*
X58929654Y-131114500D01*
X58929631Y-131114501D01*
X58876098Y-131117345D01*
X58876097Y-131117345D01*
X58642042Y-131162612D01*
X58642040Y-131162612D01*
X58642038Y-131162613D01*
X58579444Y-131186235D01*
X58418992Y-131246786D01*
X58213379Y-131367444D01*
X58213372Y-131367449D01*
X58031116Y-131521114D01*
X58031114Y-131521116D01*
X57877449Y-131703372D01*
X57877444Y-131703379D01*
X57756656Y-131909214D01*
X57705749Y-131957071D01*
X57637050Y-131969808D01*
X57572370Y-131943382D01*
X57542764Y-131909214D01*
X57422145Y-131703669D01*
X57422140Y-131703662D01*
X57268530Y-131521471D01*
X57268528Y-131521469D01*
X57086337Y-131367859D01*
X57086330Y-131367854D01*
X56880788Y-131247237D01*
X56746857Y-131196693D01*
X56746856Y-131196693D01*
X55528550Y-132415000D01*
X54821448Y-132415000D01*
X56121448Y-131115000D01*
X52828551Y-131115000D01*
X54128552Y-132415000D01*
X53421449Y-132415000D01*
X52203142Y-131196693D01*
X52069206Y-131247240D01*
X51863664Y-131367858D01*
X51863662Y-131367859D01*
X51681471Y-131521469D01*
X51681469Y-131521471D01*
X51527859Y-131703662D01*
X51527854Y-131703669D01*
X51407240Y-131909206D01*
X51323095Y-132132178D01*
X51277844Y-132366150D01*
X51277844Y-132366151D01*
X51275001Y-132419667D01*
X51275000Y-132419706D01*
X50000500Y-132419706D01*
X50000500Y-126901455D01*
X70899500Y-126901455D01*
X70899500Y-127098544D01*
X70937947Y-127291828D01*
X70937949Y-127291836D01*
X71013367Y-127473910D01*
X71013372Y-127473920D01*
X71122860Y-127637780D01*
X71122863Y-127637784D01*
X74062215Y-130577136D01*
X74062219Y-130577139D01*
X74226079Y-130686627D01*
X74226083Y-130686629D01*
X74226086Y-130686631D01*
X74408164Y-130762051D01*
X74601455Y-130800499D01*
X74601458Y-130800500D01*
X74601460Y-130800500D01*
X74798542Y-130800500D01*
X74798543Y-130800499D01*
X74991836Y-130762051D01*
X75173914Y-130686631D01*
X75337781Y-130577139D01*
X75477139Y-130437781D01*
X75586631Y-130273914D01*
X75662051Y-130091836D01*
X75700500Y-129898540D01*
X75700500Y-129701460D01*
X75700500Y-129701457D01*
X75700499Y-129701455D01*
X75662052Y-129508171D01*
X75662051Y-129508164D01*
X75586631Y-129326086D01*
X75586629Y-129326083D01*
X75586627Y-129326079D01*
X75477139Y-129162219D01*
X75477136Y-129162215D01*
X74232070Y-127917149D01*
X80399500Y-127917149D01*
X80399500Y-131082850D01*
X80405918Y-131186235D01*
X80405919Y-131186238D01*
X80456950Y-131429615D01*
X80456953Y-131429625D01*
X80547342Y-131661269D01*
X80547344Y-131661273D01*
X80674634Y-131874894D01*
X80674639Y-131874902D01*
X80835348Y-132064649D01*
X80835350Y-132064651D01*
X81025097Y-132225360D01*
X81025103Y-132225363D01*
X81025106Y-132225366D01*
X81238727Y-132352656D01*
X81273309Y-132366150D01*
X81470374Y-132443046D01*
X81470381Y-132443048D01*
X81470386Y-132443050D01*
X81713763Y-132494081D01*
X81817158Y-132500500D01*
X81817169Y-132500500D01*
X83982831Y-132500500D01*
X83982842Y-132500500D01*
X84086237Y-132494081D01*
X84329614Y-132443050D01*
X84329621Y-132443046D01*
X84329625Y-132443046D01*
X84408980Y-132412080D01*
X84561273Y-132352656D01*
X84774894Y-132225366D01*
X84774898Y-132225361D01*
X84774902Y-132225360D01*
X84964649Y-132064651D01*
X84964651Y-132064649D01*
X85125360Y-131874902D01*
X85125361Y-131874898D01*
X85125366Y-131874894D01*
X85252656Y-131661273D01*
X85343050Y-131429614D01*
X85394081Y-131186237D01*
X85400500Y-131082842D01*
X85400500Y-127917158D01*
X85400499Y-127917149D01*
X87499500Y-127917149D01*
X87499500Y-131082850D01*
X87505918Y-131186235D01*
X87505919Y-131186238D01*
X87556950Y-131429615D01*
X87556953Y-131429625D01*
X87647342Y-131661269D01*
X87647344Y-131661273D01*
X87774634Y-131874894D01*
X87774639Y-131874902D01*
X87935348Y-132064649D01*
X87935350Y-132064651D01*
X88125097Y-132225360D01*
X88125103Y-132225363D01*
X88125106Y-132225366D01*
X88338727Y-132352656D01*
X88373309Y-132366150D01*
X88570374Y-132443046D01*
X88570381Y-132443048D01*
X88570386Y-132443050D01*
X88813763Y-132494081D01*
X88917158Y-132500500D01*
X88917169Y-132500500D01*
X91082831Y-132500500D01*
X91082842Y-132500500D01*
X91186237Y-132494081D01*
X91429614Y-132443050D01*
X91429621Y-132443046D01*
X91429625Y-132443046D01*
X91508980Y-132412080D01*
X91661273Y-132352656D01*
X91874894Y-132225366D01*
X91874898Y-132225361D01*
X91874902Y-132225360D01*
X92064649Y-132064651D01*
X92064651Y-132064649D01*
X92225360Y-131874902D01*
X92225361Y-131874898D01*
X92225366Y-131874894D01*
X92352656Y-131661273D01*
X92443050Y-131429614D01*
X92494081Y-131186237D01*
X92500500Y-131082842D01*
X92500500Y-127917158D01*
X92500499Y-127917149D01*
X94599500Y-127917149D01*
X94599500Y-131082850D01*
X94605918Y-131186235D01*
X94605919Y-131186238D01*
X94656950Y-131429615D01*
X94656953Y-131429625D01*
X94747342Y-131661269D01*
X94747344Y-131661273D01*
X94874634Y-131874894D01*
X94874639Y-131874902D01*
X95035348Y-132064649D01*
X95035350Y-132064651D01*
X95225097Y-132225360D01*
X95225103Y-132225363D01*
X95225106Y-132225366D01*
X95438727Y-132352656D01*
X95473309Y-132366150D01*
X95670374Y-132443046D01*
X95670381Y-132443048D01*
X95670386Y-132443050D01*
X95913763Y-132494081D01*
X96017158Y-132500500D01*
X96017169Y-132500500D01*
X98182831Y-132500500D01*
X98182842Y-132500500D01*
X98286237Y-132494081D01*
X98529614Y-132443050D01*
X98529621Y-132443046D01*
X98529625Y-132443046D01*
X98589529Y-132419670D01*
X109624500Y-132419670D01*
X109624500Y-133810329D01*
X109624501Y-133810368D01*
X109627345Y-133863901D01*
X109627345Y-133863902D01*
X109650000Y-133981039D01*
X109672613Y-134097962D01*
X109722068Y-134229008D01*
X109756786Y-134321007D01*
X109877444Y-134526620D01*
X109877449Y-134526627D01*
X110031114Y-134708883D01*
X110031116Y-134708885D01*
X110213372Y-134862550D01*
X110213379Y-134862555D01*
X110418992Y-134983213D01*
X110642038Y-135067387D01*
X110876101Y-135112655D01*
X110929662Y-135115500D01*
X110929670Y-135115500D01*
X114720330Y-135115500D01*
X114720338Y-135115500D01*
X114773899Y-135112655D01*
X115007962Y-135067387D01*
X115231008Y-134983213D01*
X115436621Y-134862555D01*
X115618884Y-134708884D01*
X115619183Y-134708530D01*
X115772550Y-134526627D01*
X115772550Y-134526626D01*
X115772555Y-134526621D01*
X115893054Y-134321279D01*
X115943961Y-134273422D01*
X116012660Y-134260685D01*
X116077339Y-134287111D01*
X116106946Y-134321279D01*
X116227444Y-134526620D01*
X116227449Y-134526627D01*
X116381114Y-134708883D01*
X116381116Y-134708885D01*
X116563372Y-134862550D01*
X116563379Y-134862555D01*
X116768992Y-134983213D01*
X116992038Y-135067387D01*
X117226101Y-135112655D01*
X117279662Y-135115500D01*
X117279670Y-135115500D01*
X121070330Y-135115500D01*
X121070338Y-135115500D01*
X121123899Y-135112655D01*
X121357962Y-135067387D01*
X121581008Y-134983213D01*
X121786621Y-134862555D01*
X121968884Y-134708884D01*
X121969183Y-134708530D01*
X122122550Y-134526627D01*
X122122550Y-134526626D01*
X122122555Y-134526621D01*
X122243054Y-134321279D01*
X122293961Y-134273422D01*
X122362660Y-134260685D01*
X122427339Y-134287111D01*
X122456946Y-134321279D01*
X122577444Y-134526620D01*
X122577449Y-134526627D01*
X122731114Y-134708883D01*
X122731116Y-134708885D01*
X122913372Y-134862550D01*
X122913379Y-134862555D01*
X123118992Y-134983213D01*
X123342038Y-135067387D01*
X123576101Y-135112655D01*
X123629662Y-135115500D01*
X123629670Y-135115500D01*
X127420330Y-135115500D01*
X127420338Y-135115500D01*
X127473899Y-135112655D01*
X127707962Y-135067387D01*
X127931008Y-134983213D01*
X128136621Y-134862555D01*
X128318884Y-134708884D01*
X128319183Y-134708530D01*
X128472550Y-134526627D01*
X128472550Y-134526626D01*
X128472555Y-134526621D01*
X128593213Y-134321008D01*
X128677387Y-134097962D01*
X128722655Y-133863899D01*
X128725500Y-133810338D01*
X128725500Y-132419662D01*
X128722655Y-132366101D01*
X128677387Y-132132038D01*
X128593213Y-131908992D01*
X128472555Y-131703379D01*
X128472550Y-131703372D01*
X128318885Y-131521116D01*
X128318883Y-131521114D01*
X128136627Y-131367449D01*
X128136620Y-131367444D01*
X127931007Y-131246786D01*
X127839008Y-131212068D01*
X127707962Y-131162613D01*
X127707957Y-131162612D01*
X127473901Y-131117345D01*
X127420368Y-131114501D01*
X127420345Y-131114500D01*
X127420338Y-131114500D01*
X123629662Y-131114500D01*
X123629654Y-131114500D01*
X123629631Y-131114501D01*
X123576098Y-131117345D01*
X123576097Y-131117345D01*
X123342042Y-131162612D01*
X123342040Y-131162612D01*
X123342038Y-131162613D01*
X123279444Y-131186235D01*
X123118992Y-131246786D01*
X122913379Y-131367444D01*
X122913372Y-131367449D01*
X122731116Y-131521114D01*
X122731114Y-131521116D01*
X122577449Y-131703372D01*
X122577444Y-131703379D01*
X122456946Y-131908720D01*
X122406039Y-131956577D01*
X122337340Y-131969314D01*
X122272660Y-131942888D01*
X122243054Y-131908720D01*
X122122555Y-131703379D01*
X122122550Y-131703372D01*
X121968885Y-131521116D01*
X121968883Y-131521114D01*
X121786627Y-131367449D01*
X121786620Y-131367444D01*
X121581007Y-131246786D01*
X121489008Y-131212068D01*
X121357962Y-131162613D01*
X121357957Y-131162612D01*
X121123901Y-131117345D01*
X121070368Y-131114501D01*
X121070345Y-131114500D01*
X121070338Y-131114500D01*
X117279662Y-131114500D01*
X117279654Y-131114500D01*
X117279631Y-131114501D01*
X117226098Y-131117345D01*
X117226097Y-131117345D01*
X116992042Y-131162612D01*
X116992040Y-131162612D01*
X116992038Y-131162613D01*
X116929444Y-131186235D01*
X116768992Y-131246786D01*
X116563379Y-131367444D01*
X116563372Y-131367449D01*
X116381116Y-131521114D01*
X116381114Y-131521116D01*
X116227449Y-131703372D01*
X116227444Y-131703379D01*
X116106946Y-131908720D01*
X116056039Y-131956577D01*
X115987340Y-131969314D01*
X115922660Y-131942888D01*
X115893054Y-131908720D01*
X115772555Y-131703379D01*
X115772550Y-131703372D01*
X115618885Y-131521116D01*
X115618883Y-131521114D01*
X115436627Y-131367449D01*
X115436620Y-131367444D01*
X115231007Y-131246786D01*
X115139008Y-131212068D01*
X115007962Y-131162613D01*
X115007957Y-131162612D01*
X114773901Y-131117345D01*
X114720368Y-131114501D01*
X114720345Y-131114500D01*
X114720338Y-131114500D01*
X110929662Y-131114500D01*
X110929654Y-131114500D01*
X110929631Y-131114501D01*
X110876098Y-131117345D01*
X110876097Y-131117345D01*
X110642042Y-131162612D01*
X110642040Y-131162612D01*
X110642038Y-131162613D01*
X110579444Y-131186235D01*
X110418992Y-131246786D01*
X110213379Y-131367444D01*
X110213372Y-131367449D01*
X110031116Y-131521114D01*
X110031114Y-131521116D01*
X109877449Y-131703372D01*
X109877444Y-131703379D01*
X109756786Y-131908992D01*
X109701024Y-132056752D01*
X109672613Y-132132038D01*
X109672612Y-132132040D01*
X109672612Y-132132042D01*
X109627345Y-132366097D01*
X109627345Y-132366098D01*
X109624501Y-132419631D01*
X109624500Y-132419670D01*
X98589529Y-132419670D01*
X98608980Y-132412080D01*
X98761273Y-132352656D01*
X98974894Y-132225366D01*
X98974898Y-132225361D01*
X98974902Y-132225360D01*
X99164649Y-132064651D01*
X99164651Y-132064649D01*
X99325360Y-131874902D01*
X99325361Y-131874898D01*
X99325366Y-131874894D01*
X99452656Y-131661273D01*
X99543050Y-131429614D01*
X99594081Y-131186237D01*
X99600500Y-131082842D01*
X99600500Y-127917158D01*
X99594081Y-127813763D01*
X99543050Y-127570386D01*
X99543048Y-127570381D01*
X99543046Y-127570374D01*
X99452657Y-127338730D01*
X99452656Y-127338727D01*
X99325366Y-127125106D01*
X99325363Y-127125103D01*
X99325360Y-127125097D01*
X99164651Y-126935350D01*
X99164649Y-126935348D01*
X98974902Y-126774639D01*
X98863354Y-126708171D01*
X98761273Y-126647344D01*
X98761271Y-126647343D01*
X98761269Y-126647342D01*
X98529625Y-126556953D01*
X98529615Y-126556950D01*
X98286238Y-126505919D01*
X98286235Y-126505918D01*
X98182850Y-126499500D01*
X98182842Y-126499500D01*
X96017158Y-126499500D01*
X96017149Y-126499500D01*
X95913764Y-126505918D01*
X95913761Y-126505919D01*
X95670384Y-126556950D01*
X95670374Y-126556953D01*
X95438730Y-126647342D01*
X95225097Y-126774639D01*
X95035350Y-126935348D01*
X95035348Y-126935350D01*
X94874639Y-127125097D01*
X94747342Y-127338730D01*
X94656953Y-127570374D01*
X94656950Y-127570384D01*
X94605919Y-127813761D01*
X94605918Y-127813764D01*
X94599500Y-127917149D01*
X92500499Y-127917149D01*
X92494081Y-127813763D01*
X92443050Y-127570386D01*
X92443048Y-127570381D01*
X92443046Y-127570374D01*
X92352657Y-127338730D01*
X92352656Y-127338727D01*
X92225366Y-127125106D01*
X92225363Y-127125103D01*
X92225360Y-127125097D01*
X92064651Y-126935350D01*
X92064649Y-126935348D01*
X91874902Y-126774639D01*
X91763354Y-126708171D01*
X91661273Y-126647344D01*
X91661271Y-126647343D01*
X91661269Y-126647342D01*
X91429625Y-126556953D01*
X91429615Y-126556950D01*
X91186238Y-126505919D01*
X91186235Y-126505918D01*
X91082850Y-126499500D01*
X91082842Y-126499500D01*
X88917158Y-126499500D01*
X88917149Y-126499500D01*
X88813764Y-126505918D01*
X88813761Y-126505919D01*
X88570384Y-126556950D01*
X88570374Y-126556953D01*
X88338730Y-126647342D01*
X88125097Y-126774639D01*
X87935350Y-126935348D01*
X87935348Y-126935350D01*
X87774639Y-127125097D01*
X87647342Y-127338730D01*
X87556953Y-127570374D01*
X87556950Y-127570384D01*
X87505919Y-127813761D01*
X87505918Y-127813764D01*
X87499500Y-127917149D01*
X85400499Y-127917149D01*
X85394081Y-127813763D01*
X85343050Y-127570386D01*
X85343048Y-127570381D01*
X85343046Y-127570374D01*
X85252657Y-127338730D01*
X85252656Y-127338727D01*
X85125366Y-127125106D01*
X85125363Y-127125103D01*
X85125360Y-127125097D01*
X84964651Y-126935350D01*
X84964649Y-126935348D01*
X84774902Y-126774639D01*
X84663354Y-126708171D01*
X84561273Y-126647344D01*
X84561271Y-126647343D01*
X84561269Y-126647342D01*
X84329625Y-126556953D01*
X84329615Y-126556950D01*
X84086238Y-126505919D01*
X84086235Y-126505918D01*
X83982850Y-126499500D01*
X83982842Y-126499500D01*
X81817158Y-126499500D01*
X81817149Y-126499500D01*
X81713764Y-126505918D01*
X81713761Y-126505919D01*
X81470384Y-126556950D01*
X81470374Y-126556953D01*
X81238730Y-126647342D01*
X81025097Y-126774639D01*
X80835350Y-126935348D01*
X80835348Y-126935350D01*
X80674639Y-127125097D01*
X80547342Y-127338730D01*
X80456953Y-127570374D01*
X80456950Y-127570384D01*
X80405919Y-127813761D01*
X80405918Y-127813764D01*
X80399500Y-127917149D01*
X74232070Y-127917149D01*
X72537784Y-126222863D01*
X72537780Y-126222860D01*
X72373920Y-126113372D01*
X72373910Y-126113367D01*
X72191836Y-126037949D01*
X72191828Y-126037947D01*
X71998543Y-125999500D01*
X71998540Y-125999500D01*
X71801460Y-125999500D01*
X71801457Y-125999500D01*
X71608171Y-126037947D01*
X71608163Y-126037949D01*
X71426089Y-126113367D01*
X71426079Y-126113372D01*
X71262219Y-126222860D01*
X71262215Y-126222863D01*
X71122863Y-126362215D01*
X71122860Y-126362219D01*
X71013372Y-126526079D01*
X71013367Y-126526089D01*
X70937949Y-126708163D01*
X70937947Y-126708171D01*
X70899500Y-126901455D01*
X50000500Y-126901455D01*
X50000500Y-116189670D01*
X51274500Y-116189670D01*
X51274500Y-117580329D01*
X51274501Y-117580368D01*
X51277345Y-117633901D01*
X51277345Y-117633902D01*
X51279945Y-117647344D01*
X51322613Y-117867962D01*
X51372068Y-117999008D01*
X51406786Y-118091007D01*
X51527444Y-118296620D01*
X51527449Y-118296627D01*
X51681114Y-118478883D01*
X51681116Y-118478885D01*
X51863372Y-118632550D01*
X51863379Y-118632555D01*
X52068992Y-118753213D01*
X52292038Y-118837387D01*
X52526101Y-118882655D01*
X52579662Y-118885500D01*
X52579670Y-118885500D01*
X56370330Y-118885500D01*
X56370338Y-118885500D01*
X56423899Y-118882655D01*
X56657962Y-118837387D01*
X56881008Y-118753213D01*
X57086621Y-118632555D01*
X57160360Y-118570384D01*
X57268883Y-118478885D01*
X57268885Y-118478883D01*
X57422550Y-118296627D01*
X57422550Y-118296626D01*
X57422555Y-118296621D01*
X57543054Y-118091279D01*
X57593961Y-118043422D01*
X57662660Y-118030685D01*
X57727339Y-118057111D01*
X57756946Y-118091279D01*
X57877444Y-118296620D01*
X57877449Y-118296627D01*
X58031114Y-118478883D01*
X58031116Y-118478885D01*
X58213372Y-118632550D01*
X58213379Y-118632555D01*
X58418992Y-118753213D01*
X58642038Y-118837387D01*
X58876101Y-118882655D01*
X58929662Y-118885500D01*
X58929670Y-118885500D01*
X62720330Y-118885500D01*
X62720338Y-118885500D01*
X62773899Y-118882655D01*
X63007962Y-118837387D01*
X63231008Y-118753213D01*
X63436621Y-118632555D01*
X63510360Y-118570384D01*
X63618883Y-118478885D01*
X63618885Y-118478883D01*
X63772550Y-118296627D01*
X63772550Y-118296626D01*
X63772555Y-118296621D01*
X63893054Y-118091279D01*
X63943961Y-118043422D01*
X64012660Y-118030685D01*
X64077339Y-118057111D01*
X64106946Y-118091279D01*
X64227444Y-118296620D01*
X64227449Y-118296627D01*
X64381114Y-118478883D01*
X64381116Y-118478885D01*
X64563372Y-118632550D01*
X64563379Y-118632555D01*
X64768992Y-118753213D01*
X64992038Y-118837387D01*
X65226101Y-118882655D01*
X65279662Y-118885500D01*
X65279670Y-118885500D01*
X69070330Y-118885500D01*
X69070338Y-118885500D01*
X69123899Y-118882655D01*
X69357962Y-118837387D01*
X69581008Y-118753213D01*
X69786621Y-118632555D01*
X69860360Y-118570384D01*
X69945567Y-118498543D01*
X77099499Y-118498543D01*
X77137947Y-118691829D01*
X77137950Y-118691839D01*
X77213364Y-118873907D01*
X77213371Y-118873920D01*
X77322860Y-119037781D01*
X77322863Y-119037785D01*
X77462214Y-119177136D01*
X77462218Y-119177139D01*
X77626079Y-119286628D01*
X77626092Y-119286635D01*
X77808160Y-119362049D01*
X77808165Y-119362051D01*
X77808169Y-119362051D01*
X77808170Y-119362052D01*
X78001456Y-119400500D01*
X78001459Y-119400500D01*
X78198543Y-119400500D01*
X78328582Y-119374632D01*
X78391835Y-119362051D01*
X78573914Y-119286632D01*
X78737782Y-119177139D01*
X78877139Y-119037782D01*
X78957743Y-118917149D01*
X80399500Y-118917149D01*
X80399500Y-122082850D01*
X80405918Y-122186235D01*
X80405919Y-122186238D01*
X80456950Y-122429615D01*
X80456953Y-122429625D01*
X80547342Y-122661269D01*
X80674639Y-122874902D01*
X80835348Y-123064649D01*
X80835350Y-123064651D01*
X81025097Y-123225360D01*
X81025103Y-123225363D01*
X81025106Y-123225366D01*
X81238727Y-123352656D01*
X81238730Y-123352657D01*
X81470374Y-123443046D01*
X81470381Y-123443048D01*
X81470386Y-123443050D01*
X81713763Y-123494081D01*
X81817158Y-123500500D01*
X81817169Y-123500500D01*
X83982831Y-123500500D01*
X83982842Y-123500500D01*
X84086237Y-123494081D01*
X84329614Y-123443050D01*
X84329621Y-123443046D01*
X84329625Y-123443046D01*
X84408980Y-123412080D01*
X84561273Y-123352656D01*
X84774894Y-123225366D01*
X84774898Y-123225361D01*
X84774902Y-123225360D01*
X84964649Y-123064651D01*
X84964651Y-123064649D01*
X85125360Y-122874902D01*
X85125361Y-122874898D01*
X85125366Y-122874894D01*
X85252656Y-122661273D01*
X85343050Y-122429614D01*
X85394081Y-122186237D01*
X85400500Y-122082842D01*
X85400500Y-118917158D01*
X85400499Y-118917149D01*
X87499500Y-118917149D01*
X87499500Y-122082850D01*
X87505918Y-122186235D01*
X87505919Y-122186238D01*
X87556950Y-122429615D01*
X87556953Y-122429625D01*
X87647342Y-122661269D01*
X87774639Y-122874902D01*
X87935348Y-123064649D01*
X87935350Y-123064651D01*
X88125097Y-123225360D01*
X88125103Y-123225363D01*
X88125106Y-123225366D01*
X88338727Y-123352656D01*
X88338730Y-123352657D01*
X88570374Y-123443046D01*
X88570381Y-123443048D01*
X88570386Y-123443050D01*
X88813763Y-123494081D01*
X88917158Y-123500500D01*
X88917169Y-123500500D01*
X91082831Y-123500500D01*
X91082842Y-123500500D01*
X91186237Y-123494081D01*
X91429614Y-123443050D01*
X91429621Y-123443046D01*
X91429625Y-123443046D01*
X91508980Y-123412080D01*
X91661273Y-123352656D01*
X91874894Y-123225366D01*
X91874898Y-123225361D01*
X91874902Y-123225360D01*
X92064649Y-123064651D01*
X92064651Y-123064649D01*
X92225360Y-122874902D01*
X92225361Y-122874898D01*
X92225366Y-122874894D01*
X92352656Y-122661273D01*
X92443050Y-122429614D01*
X92494081Y-122186237D01*
X92500500Y-122082842D01*
X92500500Y-118917158D01*
X92500499Y-118917149D01*
X94599500Y-118917149D01*
X94599500Y-122082850D01*
X94605918Y-122186235D01*
X94605919Y-122186238D01*
X94656950Y-122429615D01*
X94656953Y-122429625D01*
X94747342Y-122661269D01*
X94874639Y-122874902D01*
X95035348Y-123064649D01*
X95035350Y-123064651D01*
X95225097Y-123225360D01*
X95225103Y-123225363D01*
X95225106Y-123225366D01*
X95438727Y-123352656D01*
X95438730Y-123352657D01*
X95670374Y-123443046D01*
X95670381Y-123443048D01*
X95670386Y-123443050D01*
X95913763Y-123494081D01*
X96017158Y-123500500D01*
X96017169Y-123500500D01*
X98182831Y-123500500D01*
X98182842Y-123500500D01*
X98286237Y-123494081D01*
X98529614Y-123443050D01*
X98529621Y-123443046D01*
X98529625Y-123443046D01*
X98608980Y-123412080D01*
X98761273Y-123352656D01*
X98974894Y-123225366D01*
X98974898Y-123225361D01*
X98974902Y-123225360D01*
X99164649Y-123064651D01*
X99164651Y-123064649D01*
X99325360Y-122874902D01*
X99325361Y-122874898D01*
X99325366Y-122874894D01*
X99452656Y-122661273D01*
X99543050Y-122429614D01*
X99594081Y-122186237D01*
X99600500Y-122082842D01*
X99600500Y-118917158D01*
X99594081Y-118813763D01*
X99543050Y-118570386D01*
X99543048Y-118570381D01*
X99543046Y-118570374D01*
X99452657Y-118338730D01*
X99452656Y-118338727D01*
X99325366Y-118125106D01*
X99325363Y-118125103D01*
X99325360Y-118125097D01*
X99164651Y-117935350D01*
X99164649Y-117935348D01*
X98974902Y-117774639D01*
X98935296Y-117751039D01*
X98761273Y-117647344D01*
X98761271Y-117647343D01*
X98761269Y-117647342D01*
X98529625Y-117556953D01*
X98529615Y-117556950D01*
X98286238Y-117505919D01*
X98286235Y-117505918D01*
X98182850Y-117499500D01*
X98182842Y-117499500D01*
X96017158Y-117499500D01*
X96017149Y-117499500D01*
X95913764Y-117505918D01*
X95913761Y-117505919D01*
X95670384Y-117556950D01*
X95670374Y-117556953D01*
X95438730Y-117647342D01*
X95225097Y-117774639D01*
X95035350Y-117935348D01*
X95035348Y-117935350D01*
X94874639Y-118125097D01*
X94747342Y-118338730D01*
X94656953Y-118570374D01*
X94656950Y-118570384D01*
X94605919Y-118813761D01*
X94605918Y-118813764D01*
X94599500Y-118917149D01*
X92500499Y-118917149D01*
X92494081Y-118813763D01*
X92443050Y-118570386D01*
X92443048Y-118570381D01*
X92443046Y-118570374D01*
X92352657Y-118338730D01*
X92352656Y-118338727D01*
X92225366Y-118125106D01*
X92225363Y-118125103D01*
X92225360Y-118125097D01*
X92064651Y-117935350D01*
X92064649Y-117935348D01*
X91874902Y-117774639D01*
X91835296Y-117751039D01*
X91661273Y-117647344D01*
X91661271Y-117647343D01*
X91661269Y-117647342D01*
X91429625Y-117556953D01*
X91429615Y-117556950D01*
X91186238Y-117505919D01*
X91186235Y-117505918D01*
X91082850Y-117499500D01*
X91082842Y-117499500D01*
X88917158Y-117499500D01*
X88917149Y-117499500D01*
X88813764Y-117505918D01*
X88813761Y-117505919D01*
X88570384Y-117556950D01*
X88570374Y-117556953D01*
X88338730Y-117647342D01*
X88125097Y-117774639D01*
X87935350Y-117935348D01*
X87935348Y-117935350D01*
X87774639Y-118125097D01*
X87647342Y-118338730D01*
X87556953Y-118570374D01*
X87556950Y-118570384D01*
X87505919Y-118813761D01*
X87505918Y-118813764D01*
X87499500Y-118917149D01*
X85400499Y-118917149D01*
X85394081Y-118813763D01*
X85343050Y-118570386D01*
X85343048Y-118570381D01*
X85343046Y-118570374D01*
X85252657Y-118338730D01*
X85252656Y-118338727D01*
X85125366Y-118125106D01*
X85125363Y-118125103D01*
X85125360Y-118125097D01*
X84964651Y-117935350D01*
X84964649Y-117935348D01*
X84774902Y-117774639D01*
X84735296Y-117751039D01*
X84561273Y-117647344D01*
X84561271Y-117647343D01*
X84561269Y-117647342D01*
X84329625Y-117556953D01*
X84329615Y-117556950D01*
X84086238Y-117505919D01*
X84086235Y-117505918D01*
X83982850Y-117499500D01*
X83982842Y-117499500D01*
X81817158Y-117499500D01*
X81817149Y-117499500D01*
X81713764Y-117505918D01*
X81713761Y-117505919D01*
X81470384Y-117556950D01*
X81470374Y-117556953D01*
X81238730Y-117647342D01*
X81025097Y-117774639D01*
X80835350Y-117935348D01*
X80835348Y-117935350D01*
X80674639Y-118125097D01*
X80547342Y-118338730D01*
X80456953Y-118570374D01*
X80456950Y-118570384D01*
X80405919Y-118813761D01*
X80405918Y-118813764D01*
X80399500Y-118917149D01*
X78957743Y-118917149D01*
X78986632Y-118873914D01*
X78987721Y-118871284D01*
X78989173Y-118867781D01*
X78989173Y-118867780D01*
X79018713Y-118796460D01*
X79062051Y-118691835D01*
X79086209Y-118570386D01*
X79100500Y-118498543D01*
X79100500Y-116189670D01*
X109624500Y-116189670D01*
X109624500Y-117580329D01*
X109624501Y-117580368D01*
X109627345Y-117633901D01*
X109627345Y-117633902D01*
X109629945Y-117647344D01*
X109672613Y-117867962D01*
X109722068Y-117999008D01*
X109756786Y-118091007D01*
X109877444Y-118296620D01*
X109877449Y-118296627D01*
X110031114Y-118478883D01*
X110031116Y-118478885D01*
X110213372Y-118632550D01*
X110213379Y-118632555D01*
X110418992Y-118753213D01*
X110642038Y-118837387D01*
X110876101Y-118882655D01*
X110929662Y-118885500D01*
X110929670Y-118885500D01*
X114720330Y-118885500D01*
X114720338Y-118885500D01*
X114773899Y-118882655D01*
X115007962Y-118837387D01*
X115231008Y-118753213D01*
X115436621Y-118632555D01*
X115510360Y-118570384D01*
X115618883Y-118478885D01*
X115618885Y-118478883D01*
X115772550Y-118296627D01*
X115772550Y-118296626D01*
X115772555Y-118296621D01*
X115893054Y-118091279D01*
X115943961Y-118043422D01*
X116012660Y-118030685D01*
X116077339Y-118057111D01*
X116106946Y-118091279D01*
X116227444Y-118296620D01*
X116227449Y-118296627D01*
X116381114Y-118478883D01*
X116381116Y-118478885D01*
X116563372Y-118632550D01*
X116563379Y-118632555D01*
X116768992Y-118753213D01*
X116992038Y-118837387D01*
X117226101Y-118882655D01*
X117279662Y-118885500D01*
X117279670Y-118885500D01*
X121070330Y-118885500D01*
X121070338Y-118885500D01*
X121123899Y-118882655D01*
X121357962Y-118837387D01*
X121581008Y-118753213D01*
X121786621Y-118632555D01*
X121860360Y-118570384D01*
X121968883Y-118478885D01*
X121968885Y-118478883D01*
X122122550Y-118296627D01*
X122122550Y-118296626D01*
X122122555Y-118296621D01*
X122243213Y-118091008D01*
X122243214Y-118091003D01*
X122243343Y-118090785D01*
X122294250Y-118042928D01*
X122362948Y-118030191D01*
X122427628Y-118056617D01*
X122457235Y-118090784D01*
X122577857Y-118296335D01*
X122577859Y-118296337D01*
X122731469Y-118478528D01*
X122731471Y-118478530D01*
X122913662Y-118632140D01*
X122913669Y-118632145D01*
X123119206Y-118752759D01*
X123253142Y-118803305D01*
X123253143Y-118803305D01*
X124471448Y-117585000D01*
X125178552Y-117585000D01*
X123878551Y-118884999D01*
X123878552Y-118885000D01*
X127171448Y-118885000D01*
X127171448Y-118884999D01*
X125871448Y-117585000D01*
X126578551Y-117585000D01*
X127796855Y-118803304D01*
X127930793Y-118752759D01*
X128136330Y-118632145D01*
X128136337Y-118632140D01*
X128318528Y-118478530D01*
X128318530Y-118478528D01*
X128472140Y-118296337D01*
X128472145Y-118296330D01*
X128592759Y-118090793D01*
X128676904Y-117867821D01*
X128722155Y-117633849D01*
X128722155Y-117633848D01*
X128724998Y-117580332D01*
X128725000Y-117580293D01*
X128725000Y-116189706D01*
X128724998Y-116189667D01*
X128722155Y-116136151D01*
X128722155Y-116136150D01*
X128676904Y-115902178D01*
X128592759Y-115679206D01*
X128472145Y-115473669D01*
X128472140Y-115473662D01*
X128318530Y-115291471D01*
X128318528Y-115291469D01*
X128136337Y-115137859D01*
X128136330Y-115137854D01*
X127930788Y-115017237D01*
X127796857Y-114966693D01*
X127796856Y-114966693D01*
X126578550Y-116185000D01*
X125871448Y-116185000D01*
X127171448Y-114885000D01*
X123878551Y-114885000D01*
X125178552Y-116185000D01*
X124471449Y-116185000D01*
X123253142Y-114966693D01*
X123119206Y-115017240D01*
X122913664Y-115137858D01*
X122913662Y-115137859D01*
X122731471Y-115291469D01*
X122731469Y-115291471D01*
X122577859Y-115473662D01*
X122577852Y-115473673D01*
X122457234Y-115679215D01*
X122406327Y-115727071D01*
X122337628Y-115739808D01*
X122272949Y-115713381D01*
X122243343Y-115679214D01*
X122122555Y-115473379D01*
X122122550Y-115473372D01*
X121968885Y-115291116D01*
X121968883Y-115291114D01*
X121786627Y-115137449D01*
X121786620Y-115137444D01*
X121581007Y-115016786D01*
X121489008Y-114982068D01*
X121357962Y-114932613D01*
X121357957Y-114932612D01*
X121123901Y-114887345D01*
X121070368Y-114884501D01*
X121070345Y-114884500D01*
X121070338Y-114884500D01*
X117279662Y-114884500D01*
X117279654Y-114884500D01*
X117279631Y-114884501D01*
X117226098Y-114887345D01*
X117226097Y-114887345D01*
X116992042Y-114932612D01*
X116992040Y-114932612D01*
X116992038Y-114932613D01*
X116916752Y-114961024D01*
X116768992Y-115016786D01*
X116563379Y-115137444D01*
X116563372Y-115137449D01*
X116381116Y-115291114D01*
X116381114Y-115291116D01*
X116227449Y-115473372D01*
X116227444Y-115473379D01*
X116106946Y-115678720D01*
X116056039Y-115726577D01*
X115987340Y-115739314D01*
X115922660Y-115712888D01*
X115893054Y-115678720D01*
X115772555Y-115473379D01*
X115772550Y-115473372D01*
X115618885Y-115291116D01*
X115618883Y-115291114D01*
X115436627Y-115137449D01*
X115436620Y-115137444D01*
X115231007Y-115016786D01*
X115139008Y-114982068D01*
X115007962Y-114932613D01*
X115007957Y-114932612D01*
X114773901Y-114887345D01*
X114720368Y-114884501D01*
X114720345Y-114884500D01*
X114720338Y-114884500D01*
X110929662Y-114884500D01*
X110929654Y-114884500D01*
X110929631Y-114884501D01*
X110876098Y-114887345D01*
X110876097Y-114887345D01*
X110642042Y-114932612D01*
X110642040Y-114932612D01*
X110642038Y-114932613D01*
X110566752Y-114961024D01*
X110418992Y-115016786D01*
X110213379Y-115137444D01*
X110213372Y-115137449D01*
X110031116Y-115291114D01*
X110031114Y-115291116D01*
X109877449Y-115473372D01*
X109877444Y-115473379D01*
X109756786Y-115678992D01*
X109701024Y-115826752D01*
X109672613Y-115902038D01*
X109672612Y-115902040D01*
X109672612Y-115902042D01*
X109627345Y-116136097D01*
X109627345Y-116136098D01*
X109624501Y-116189631D01*
X109624500Y-116189670D01*
X79100500Y-116189670D01*
X79100500Y-113101456D01*
X79062052Y-112908170D01*
X79062051Y-112908169D01*
X79062051Y-112908165D01*
X79048771Y-112876103D01*
X78986635Y-112726092D01*
X78986628Y-112726079D01*
X78877139Y-112562218D01*
X78877136Y-112562214D01*
X78737785Y-112422863D01*
X78737781Y-112422860D01*
X78573920Y-112313371D01*
X78573907Y-112313364D01*
X78391839Y-112237950D01*
X78391829Y-112237947D01*
X78198543Y-112199500D01*
X78198541Y-112199500D01*
X78001459Y-112199500D01*
X78001457Y-112199500D01*
X77808170Y-112237947D01*
X77808160Y-112237950D01*
X77626092Y-112313364D01*
X77626079Y-112313371D01*
X77462218Y-112422860D01*
X77462214Y-112422863D01*
X77322863Y-112562214D01*
X77322860Y-112562218D01*
X77213371Y-112726079D01*
X77213364Y-112726092D01*
X77137950Y-112908160D01*
X77137947Y-112908170D01*
X77099500Y-113101456D01*
X77099500Y-113101459D01*
X77099500Y-118498541D01*
X77099500Y-118498543D01*
X77099499Y-118498543D01*
X69945567Y-118498543D01*
X69968883Y-118478885D01*
X69968885Y-118478883D01*
X70122550Y-118296627D01*
X70122550Y-118296626D01*
X70122555Y-118296621D01*
X70243213Y-118091008D01*
X70327387Y-117867962D01*
X70372655Y-117633899D01*
X70375500Y-117580338D01*
X70375500Y-116189662D01*
X70372655Y-116136101D01*
X70327387Y-115902038D01*
X70243213Y-115678992D01*
X70122555Y-115473379D01*
X70122550Y-115473372D01*
X69968885Y-115291116D01*
X69968883Y-115291114D01*
X69786627Y-115137449D01*
X69786620Y-115137444D01*
X69581007Y-115016786D01*
X69489008Y-114982068D01*
X69357962Y-114932613D01*
X69357957Y-114932612D01*
X69123901Y-114887345D01*
X69070368Y-114884501D01*
X69070345Y-114884500D01*
X69070338Y-114884500D01*
X65279662Y-114884500D01*
X65279654Y-114884500D01*
X65279631Y-114884501D01*
X65226098Y-114887345D01*
X65226097Y-114887345D01*
X64992042Y-114932612D01*
X64992040Y-114932612D01*
X64992038Y-114932613D01*
X64916752Y-114961024D01*
X64768992Y-115016786D01*
X64563379Y-115137444D01*
X64563372Y-115137449D01*
X64381116Y-115291114D01*
X64381114Y-115291116D01*
X64227449Y-115473372D01*
X64227444Y-115473379D01*
X64106946Y-115678720D01*
X64056039Y-115726577D01*
X63987340Y-115739314D01*
X63922660Y-115712888D01*
X63893054Y-115678720D01*
X63772555Y-115473379D01*
X63772550Y-115473372D01*
X63618885Y-115291116D01*
X63618883Y-115291114D01*
X63436627Y-115137449D01*
X63436620Y-115137444D01*
X63231007Y-115016786D01*
X63139008Y-114982068D01*
X63007962Y-114932613D01*
X63007957Y-114932612D01*
X62773901Y-114887345D01*
X62720368Y-114884501D01*
X62720345Y-114884500D01*
X62720338Y-114884500D01*
X58929662Y-114884500D01*
X58929654Y-114884500D01*
X58929631Y-114884501D01*
X58876098Y-114887345D01*
X58876097Y-114887345D01*
X58642042Y-114932612D01*
X58642040Y-114932612D01*
X58642038Y-114932613D01*
X58566752Y-114961024D01*
X58418992Y-115016786D01*
X58213379Y-115137444D01*
X58213372Y-115137449D01*
X58031116Y-115291114D01*
X58031114Y-115291116D01*
X57877449Y-115473372D01*
X57877444Y-115473379D01*
X57756946Y-115678720D01*
X57706039Y-115726577D01*
X57637340Y-115739314D01*
X57572660Y-115712888D01*
X57543054Y-115678720D01*
X57422555Y-115473379D01*
X57422550Y-115473372D01*
X57268885Y-115291116D01*
X57268883Y-115291114D01*
X57086627Y-115137449D01*
X57086620Y-115137444D01*
X56881007Y-115016786D01*
X56789008Y-114982068D01*
X56657962Y-114932613D01*
X56657957Y-114932612D01*
X56423901Y-114887345D01*
X56370368Y-114884501D01*
X56370345Y-114884500D01*
X56370338Y-114884500D01*
X52579662Y-114884500D01*
X52579654Y-114884500D01*
X52579631Y-114884501D01*
X52526098Y-114887345D01*
X52526097Y-114887345D01*
X52292042Y-114932612D01*
X52292040Y-114932612D01*
X52292038Y-114932613D01*
X52216752Y-114961024D01*
X52068992Y-115016786D01*
X51863379Y-115137444D01*
X51863372Y-115137449D01*
X51681116Y-115291114D01*
X51681114Y-115291116D01*
X51527449Y-115473372D01*
X51527444Y-115473379D01*
X51406786Y-115678992D01*
X51351024Y-115826752D01*
X51322613Y-115902038D01*
X51322612Y-115902040D01*
X51322612Y-115902042D01*
X51277345Y-116136097D01*
X51277345Y-116136098D01*
X51274501Y-116189631D01*
X51274500Y-116189670D01*
X50000500Y-116189670D01*
X50000500Y-111427973D01*
X84349500Y-111427973D01*
X84349500Y-111672027D01*
X84387679Y-111913076D01*
X84463096Y-112145185D01*
X84548789Y-112313368D01*
X84573896Y-112362642D01*
X84717339Y-112560076D01*
X84717343Y-112560081D01*
X84889918Y-112732656D01*
X84889923Y-112732660D01*
X85062136Y-112857779D01*
X85087361Y-112876106D01*
X85304815Y-112986904D01*
X85536924Y-113062321D01*
X85777973Y-113100500D01*
X85777974Y-113100500D01*
X86022026Y-113100500D01*
X86022027Y-113100500D01*
X86263076Y-113062321D01*
X86495185Y-112986904D01*
X86712639Y-112876106D01*
X86910083Y-112732655D01*
X87082655Y-112560083D01*
X87226106Y-112362639D01*
X87336904Y-112145185D01*
X87412321Y-111913076D01*
X87450500Y-111672027D01*
X87450500Y-111427973D01*
X112349500Y-111427973D01*
X112349500Y-111672027D01*
X112387679Y-111913076D01*
X112463096Y-112145185D01*
X112548789Y-112313368D01*
X112573896Y-112362642D01*
X112717339Y-112560076D01*
X112717343Y-112560081D01*
X112889918Y-112732656D01*
X112889923Y-112732660D01*
X113062136Y-112857779D01*
X113087361Y-112876106D01*
X113304815Y-112986904D01*
X113536924Y-113062321D01*
X113777973Y-113100500D01*
X113777974Y-113100500D01*
X114022026Y-113100500D01*
X114022027Y-113100500D01*
X114263076Y-113062321D01*
X114495185Y-112986904D01*
X114712639Y-112876106D01*
X114910083Y-112732655D01*
X115082655Y-112560083D01*
X115226106Y-112362639D01*
X115336904Y-112145185D01*
X115412321Y-111913076D01*
X115450500Y-111672027D01*
X115450500Y-111427973D01*
X115412321Y-111186924D01*
X115336904Y-110954815D01*
X115226106Y-110737361D01*
X115207779Y-110712136D01*
X115082660Y-110539923D01*
X115082656Y-110539918D01*
X114910081Y-110367343D01*
X114910076Y-110367339D01*
X114712642Y-110223896D01*
X114712641Y-110223895D01*
X114712639Y-110223894D01*
X114495185Y-110113096D01*
X114263076Y-110037679D01*
X114263074Y-110037678D01*
X114263072Y-110037678D01*
X114094769Y-110011021D01*
X114022027Y-109999500D01*
X113777973Y-109999500D01*
X113722093Y-110008350D01*
X113536927Y-110037678D01*
X113304812Y-110113097D01*
X113087357Y-110223896D01*
X112889923Y-110367339D01*
X112889918Y-110367343D01*
X112717343Y-110539918D01*
X112717339Y-110539923D01*
X112573896Y-110737357D01*
X112463097Y-110954812D01*
X112387678Y-111186927D01*
X112349500Y-111427973D01*
X87450500Y-111427973D01*
X87412321Y-111186924D01*
X87336904Y-110954815D01*
X87226106Y-110737361D01*
X87207779Y-110712136D01*
X87082660Y-110539923D01*
X87082656Y-110539918D01*
X86910081Y-110367343D01*
X86910076Y-110367339D01*
X86712642Y-110223896D01*
X86712641Y-110223895D01*
X86712639Y-110223894D01*
X86495185Y-110113096D01*
X86263076Y-110037679D01*
X86263074Y-110037678D01*
X86263072Y-110037678D01*
X86094769Y-110011021D01*
X86022027Y-109999500D01*
X85777973Y-109999500D01*
X85722093Y-110008350D01*
X85536927Y-110037678D01*
X85304812Y-110113097D01*
X85087357Y-110223896D01*
X84889923Y-110367339D01*
X84889918Y-110367343D01*
X84717343Y-110539918D01*
X84717339Y-110539923D01*
X84573896Y-110737357D01*
X84463097Y-110954812D01*
X84387678Y-111186927D01*
X84349500Y-111427973D01*
X50000500Y-111427973D01*
X50000500Y-88156491D01*
X50020185Y-88089452D01*
X50072989Y-88043697D01*
X50142147Y-88033753D01*
X50205703Y-88062778D01*
X50243477Y-88121556D01*
X50247238Y-88138843D01*
X50297811Y-88490581D01*
X50395624Y-88940212D01*
X50480120Y-89227973D01*
X50525268Y-89381731D01*
X50671549Y-89773920D01*
X50686081Y-89812881D01*
X50877232Y-90231442D01*
X51097760Y-90635308D01*
X51346542Y-91022422D01*
X51346545Y-91022427D01*
X51622302Y-91390795D01*
X51622304Y-91390797D01*
X51923642Y-91738560D01*
X52016650Y-91831568D01*
X52016653Y-91831573D01*
X52086330Y-91901250D01*
X52086330Y-91901251D01*
X52151886Y-91966807D01*
X52156216Y-91971137D01*
X52156227Y-91971147D01*
X66731952Y-106546873D01*
X66765437Y-106608196D01*
X66767210Y-106650739D01*
X66749500Y-106785265D01*
X66749500Y-107014741D01*
X66774446Y-107204215D01*
X66779452Y-107242238D01*
X66779453Y-107242240D01*
X66838842Y-107463887D01*
X66926650Y-107675876D01*
X66926657Y-107675890D01*
X67041392Y-107874617D01*
X67181081Y-108056661D01*
X67181089Y-108056670D01*
X67343330Y-108218911D01*
X67343338Y-108218918D01*
X67525382Y-108358607D01*
X67525385Y-108358608D01*
X67525388Y-108358611D01*
X67724112Y-108473344D01*
X67724117Y-108473346D01*
X67724123Y-108473349D01*
X67815480Y-108511190D01*
X67936113Y-108561158D01*
X68157762Y-108620548D01*
X68385266Y-108650500D01*
X68385273Y-108650500D01*
X68614727Y-108650500D01*
X68614734Y-108650500D01*
X68842238Y-108620548D01*
X69063887Y-108561158D01*
X69275888Y-108473344D01*
X69474612Y-108358611D01*
X69656661Y-108218919D01*
X69656665Y-108218914D01*
X69656670Y-108218911D01*
X69818911Y-108056670D01*
X69818914Y-108056665D01*
X69818919Y-108056661D01*
X69958611Y-107874612D01*
X70073344Y-107675888D01*
X70161158Y-107463887D01*
X70220548Y-107242238D01*
X70250500Y-107014734D01*
X70250500Y-106785266D01*
X70235176Y-106668872D01*
X72999500Y-106668872D01*
X72999500Y-106931127D01*
X73010507Y-107014727D01*
X73033730Y-107191116D01*
X73047429Y-107242240D01*
X73101602Y-107444418D01*
X73101605Y-107444428D01*
X73201953Y-107686690D01*
X73201958Y-107686700D01*
X73333075Y-107913803D01*
X73492718Y-108121851D01*
X73492726Y-108121860D01*
X73678140Y-108307274D01*
X73678148Y-108307281D01*
X73886196Y-108466924D01*
X74113299Y-108598041D01*
X74113309Y-108598046D01*
X74355571Y-108698394D01*
X74355581Y-108698398D01*
X74608884Y-108766270D01*
X74868880Y-108800500D01*
X74868887Y-108800500D01*
X75131113Y-108800500D01*
X75131120Y-108800500D01*
X75391116Y-108766270D01*
X75644419Y-108698398D01*
X75886697Y-108598043D01*
X76113803Y-108466924D01*
X76321851Y-108307282D01*
X76321855Y-108307277D01*
X76321860Y-108307274D01*
X76507274Y-108121860D01*
X76507277Y-108121855D01*
X76507282Y-108121851D01*
X76666924Y-107913803D01*
X76798043Y-107686697D01*
X76898398Y-107444419D01*
X76966270Y-107191116D01*
X77000500Y-106931120D01*
X77000500Y-106668880D01*
X76966270Y-106408884D01*
X76898398Y-106155581D01*
X76803049Y-105925388D01*
X76798046Y-105913309D01*
X76798041Y-105913299D01*
X76666924Y-105686196D01*
X76507281Y-105478148D01*
X76507274Y-105478140D01*
X76321860Y-105292726D01*
X76321851Y-105292718D01*
X76113803Y-105133075D01*
X75886700Y-105001958D01*
X75886690Y-105001953D01*
X75644428Y-104901605D01*
X75644421Y-104901603D01*
X75644419Y-104901602D01*
X75391116Y-104833730D01*
X75333339Y-104826123D01*
X75131127Y-104799500D01*
X75131120Y-104799500D01*
X74868880Y-104799500D01*
X74868872Y-104799500D01*
X74637772Y-104829926D01*
X74608884Y-104833730D01*
X74355581Y-104901602D01*
X74355571Y-104901605D01*
X74113309Y-105001953D01*
X74113299Y-105001958D01*
X73886196Y-105133075D01*
X73678148Y-105292718D01*
X73492718Y-105478148D01*
X73333075Y-105686196D01*
X73201958Y-105913299D01*
X73201953Y-105913309D01*
X73101605Y-106155571D01*
X73101602Y-106155581D01*
X73033730Y-106408885D01*
X72999500Y-106668872D01*
X70235176Y-106668872D01*
X70220548Y-106557762D01*
X70161158Y-106336113D01*
X70073344Y-106124112D01*
X69958611Y-105925388D01*
X69958608Y-105925385D01*
X69958607Y-105925382D01*
X69818918Y-105743338D01*
X69818911Y-105743330D01*
X69656670Y-105581089D01*
X69656661Y-105581081D01*
X69474617Y-105441392D01*
X69275890Y-105326657D01*
X69275876Y-105326650D01*
X69063887Y-105238842D01*
X68842238Y-105179452D01*
X68804215Y-105174446D01*
X68614741Y-105149500D01*
X68614734Y-105149500D01*
X68385266Y-105149500D01*
X68385265Y-105149500D01*
X68250739Y-105167210D01*
X68181703Y-105156444D01*
X68146873Y-105131952D01*
X64497970Y-101483049D01*
X64416376Y-101401455D01*
X83899500Y-101401455D01*
X83899500Y-101598544D01*
X83937947Y-101791828D01*
X83937949Y-101791836D01*
X84013367Y-101973910D01*
X84013372Y-101973920D01*
X84122860Y-102137780D01*
X84122863Y-102137784D01*
X84262215Y-102277136D01*
X84262219Y-102277139D01*
X84426079Y-102386627D01*
X84426083Y-102386629D01*
X84426086Y-102386631D01*
X84608164Y-102462051D01*
X84801455Y-102500499D01*
X84801458Y-102500500D01*
X84801460Y-102500500D01*
X84998542Y-102500500D01*
X84998543Y-102500499D01*
X85191836Y-102462051D01*
X85373914Y-102386631D01*
X85537781Y-102277139D01*
X88377140Y-99437781D01*
X88486632Y-99273914D01*
X88562052Y-99091835D01*
X88600501Y-98898540D01*
X88600501Y-98701459D01*
X88600501Y-98701456D01*
X88600500Y-98701454D01*
X88562053Y-98508171D01*
X88562052Y-98508164D01*
X88486632Y-98326085D01*
X88486631Y-98326084D01*
X88486628Y-98326078D01*
X88377140Y-98162218D01*
X88377137Y-98162214D01*
X88237785Y-98022862D01*
X88237781Y-98022859D01*
X88073921Y-97913371D01*
X88073912Y-97913366D01*
X87891836Y-97837948D01*
X87891828Y-97837946D01*
X87698544Y-97799499D01*
X87698541Y-97799499D01*
X87501460Y-97799499D01*
X87501457Y-97799499D01*
X87308172Y-97837946D01*
X87308164Y-97837948D01*
X87126088Y-97913366D01*
X87126079Y-97913371D01*
X86962219Y-98022859D01*
X86962215Y-98022862D01*
X84122863Y-100862215D01*
X84122860Y-100862219D01*
X84013372Y-101026079D01*
X84013367Y-101026089D01*
X83937949Y-101208163D01*
X83937947Y-101208171D01*
X83899500Y-101401455D01*
X64416376Y-101401455D01*
X57133808Y-94118888D01*
X57050178Y-94035258D01*
X66749500Y-94035258D01*
X66749500Y-94264741D01*
X66774446Y-94454215D01*
X66779452Y-94492238D01*
X66779453Y-94492240D01*
X66838842Y-94713887D01*
X66926650Y-94925876D01*
X66926657Y-94925890D01*
X67041392Y-95124617D01*
X67181081Y-95306661D01*
X67181089Y-95306670D01*
X67343330Y-95468911D01*
X67343338Y-95468918D01*
X67525382Y-95608607D01*
X67525385Y-95608608D01*
X67525388Y-95608611D01*
X67724112Y-95723344D01*
X67724117Y-95723346D01*
X67724123Y-95723349D01*
X67815480Y-95761190D01*
X67936113Y-95811158D01*
X68157762Y-95870548D01*
X68385266Y-95900500D01*
X68385273Y-95900500D01*
X68614727Y-95900500D01*
X68614734Y-95900500D01*
X68842238Y-95870548D01*
X69063887Y-95811158D01*
X69275888Y-95723344D01*
X69474612Y-95608611D01*
X69656661Y-95468919D01*
X69656665Y-95468914D01*
X69656670Y-95468911D01*
X69818911Y-95306670D01*
X69818914Y-95306665D01*
X69818919Y-95306661D01*
X69958611Y-95124612D01*
X70073344Y-94925888D01*
X70161158Y-94713887D01*
X70220548Y-94492238D01*
X70250500Y-94264734D01*
X70250500Y-94035266D01*
X70220548Y-93807762D01*
X70161158Y-93586113D01*
X70111190Y-93465480D01*
X70073349Y-93374123D01*
X70073346Y-93374117D01*
X70073344Y-93374112D01*
X69958611Y-93175388D01*
X69958608Y-93175385D01*
X69958607Y-93175382D01*
X69818918Y-92993338D01*
X69818911Y-92993330D01*
X69656670Y-92831089D01*
X69656661Y-92831081D01*
X69474617Y-92691392D01*
X69474612Y-92691389D01*
X69275888Y-92576656D01*
X69275876Y-92576650D01*
X69216691Y-92552135D01*
X72999500Y-92552135D01*
X72999500Y-95647870D01*
X72999501Y-95647876D01*
X73005908Y-95707483D01*
X73056202Y-95842328D01*
X73056206Y-95842335D01*
X73142452Y-95957544D01*
X73142455Y-95957547D01*
X73257664Y-96043793D01*
X73257671Y-96043797D01*
X73392517Y-96094091D01*
X73392516Y-96094091D01*
X73399444Y-96094835D01*
X73452127Y-96100500D01*
X76547872Y-96100499D01*
X76607483Y-96094091D01*
X76742331Y-96043796D01*
X76857546Y-95957546D01*
X76943796Y-95842331D01*
X76994091Y-95707483D01*
X77000500Y-95647873D01*
X77000499Y-92552128D01*
X76994739Y-92498542D01*
X76994091Y-92492516D01*
X76943797Y-92357671D01*
X76943793Y-92357664D01*
X76857547Y-92242455D01*
X76857544Y-92242452D01*
X76742335Y-92156206D01*
X76742328Y-92156202D01*
X76607482Y-92105908D01*
X76607483Y-92105908D01*
X76547883Y-92099501D01*
X76547881Y-92099500D01*
X76547873Y-92099500D01*
X76547864Y-92099500D01*
X73452129Y-92099500D01*
X73452123Y-92099501D01*
X73392516Y-92105908D01*
X73257671Y-92156202D01*
X73257664Y-92156206D01*
X73142455Y-92242452D01*
X73142452Y-92242455D01*
X73056206Y-92357664D01*
X73056202Y-92357671D01*
X73005908Y-92492517D01*
X72999501Y-92552116D01*
X72999501Y-92552123D01*
X72999500Y-92552135D01*
X69216691Y-92552135D01*
X69063887Y-92488842D01*
X68842238Y-92429452D01*
X68804215Y-92424446D01*
X68614741Y-92399500D01*
X68614734Y-92399500D01*
X68385266Y-92399500D01*
X68385258Y-92399500D01*
X68168715Y-92428009D01*
X68157762Y-92429452D01*
X68064076Y-92454554D01*
X67936112Y-92488842D01*
X67724123Y-92576650D01*
X67724109Y-92576657D01*
X67525382Y-92691392D01*
X67343338Y-92831081D01*
X67181081Y-92993338D01*
X67041392Y-93175382D01*
X66926657Y-93374109D01*
X66926650Y-93374123D01*
X66838842Y-93586112D01*
X66779453Y-93807759D01*
X66779451Y-93807770D01*
X66749500Y-94035258D01*
X57050178Y-94035258D01*
X53547574Y-90532654D01*
X53503187Y-90488266D01*
X53499447Y-90484359D01*
X53243169Y-90204681D01*
X53236215Y-90196394D01*
X53006953Y-89897614D01*
X53000748Y-89888753D01*
X52798393Y-89571118D01*
X52792985Y-89561750D01*
X52632065Y-89252625D01*
X52632065Y-89252624D01*
X52619093Y-89227706D01*
X52614520Y-89217901D01*
X52607708Y-89201455D01*
X77399500Y-89201455D01*
X77399500Y-89398544D01*
X77437947Y-89591828D01*
X77437949Y-89591836D01*
X77513367Y-89773910D01*
X77513372Y-89773920D01*
X77622860Y-89937780D01*
X77622863Y-89937784D01*
X80862215Y-93177136D01*
X80862219Y-93177139D01*
X81026079Y-93286627D01*
X81026083Y-93286629D01*
X81026086Y-93286631D01*
X81208164Y-93362051D01*
X81401455Y-93400499D01*
X81401458Y-93400500D01*
X81401460Y-93400500D01*
X81598542Y-93400500D01*
X81598543Y-93400499D01*
X81791836Y-93362051D01*
X81973914Y-93286631D01*
X82137781Y-93177139D01*
X82277139Y-93037781D01*
X82386631Y-92873914D01*
X82462051Y-92691836D01*
X82500500Y-92498540D01*
X82500500Y-92301460D01*
X82500500Y-92301457D01*
X82500499Y-92301455D01*
X82488763Y-92242454D01*
X82462051Y-92108164D01*
X82386631Y-91926086D01*
X82386629Y-91926083D01*
X82386627Y-91926079D01*
X82277139Y-91762219D01*
X82277136Y-91762215D01*
X79742894Y-89227973D01*
X97599500Y-89227973D01*
X97599500Y-89472027D01*
X97637679Y-89713076D01*
X97710691Y-89937784D01*
X97713097Y-89945187D01*
X97823896Y-90162642D01*
X97967339Y-90360076D01*
X97967343Y-90360081D01*
X98139916Y-90532654D01*
X98139923Y-90532660D01*
X98281207Y-90635308D01*
X98337361Y-90676106D01*
X98554815Y-90786904D01*
X98786924Y-90862321D01*
X99027973Y-90900500D01*
X99027974Y-90900500D01*
X99272026Y-90900500D01*
X99272027Y-90900500D01*
X99513076Y-90862321D01*
X99745185Y-90786904D01*
X99962639Y-90676106D01*
X100160083Y-90532655D01*
X100332655Y-90360083D01*
X100476106Y-90162639D01*
X100586904Y-89945185D01*
X100662321Y-89713076D01*
X100700500Y-89472027D01*
X100700500Y-89227973D01*
X100662321Y-88986924D01*
X100586904Y-88754815D01*
X100476106Y-88537361D01*
X100445663Y-88495460D01*
X100332660Y-88339923D01*
X100332656Y-88339918D01*
X100160081Y-88167343D01*
X100160076Y-88167339D01*
X99962642Y-88023896D01*
X99962641Y-88023895D01*
X99962639Y-88023894D01*
X99745185Y-87913096D01*
X99513076Y-87837679D01*
X99513074Y-87837678D01*
X99513072Y-87837678D01*
X99344769Y-87811021D01*
X99272027Y-87799500D01*
X99027973Y-87799500D01*
X98972093Y-87808350D01*
X98786927Y-87837678D01*
X98554812Y-87913097D01*
X98337357Y-88023896D01*
X98139923Y-88167339D01*
X98139918Y-88167343D01*
X97967343Y-88339918D01*
X97967339Y-88339923D01*
X97823896Y-88537357D01*
X97713097Y-88754812D01*
X97637678Y-88986927D01*
X97603700Y-89201455D01*
X97599500Y-89227973D01*
X79742894Y-89227973D01*
X79037784Y-88522863D01*
X79037780Y-88522860D01*
X78873920Y-88413372D01*
X78873910Y-88413367D01*
X78691836Y-88337949D01*
X78691828Y-88337947D01*
X78498543Y-88299500D01*
X78498540Y-88299500D01*
X78301460Y-88299500D01*
X78301457Y-88299500D01*
X78108171Y-88337947D01*
X78108163Y-88337949D01*
X77926089Y-88413367D01*
X77926079Y-88413372D01*
X77762219Y-88522860D01*
X77762215Y-88522863D01*
X77622863Y-88662215D01*
X77622860Y-88662219D01*
X77513372Y-88826079D01*
X77513367Y-88826089D01*
X77437949Y-89008163D01*
X77437947Y-89008171D01*
X77399500Y-89201455D01*
X52607708Y-89201455D01*
X52518845Y-88986924D01*
X52470395Y-88869957D01*
X52466698Y-88859799D01*
X52353445Y-88500613D01*
X52350652Y-88490187D01*
X52269131Y-88122478D01*
X52267258Y-88111851D01*
X52218096Y-87738442D01*
X52217156Y-87727704D01*
X52200618Y-87348959D01*
X52200500Y-87343550D01*
X52200500Y-85997682D01*
X63352651Y-85997682D01*
X63352651Y-86202317D01*
X63384660Y-86404417D01*
X63447895Y-86599031D01*
X63540792Y-86781350D01*
X63540798Y-86781359D01*
X63573174Y-86825921D01*
X63573175Y-86825922D01*
X64252651Y-86146446D01*
X64252651Y-86152661D01*
X64279910Y-86254394D01*
X64332571Y-86345606D01*
X64407045Y-86420080D01*
X64498257Y-86472741D01*
X64599990Y-86500000D01*
X64606204Y-86500000D01*
X63926727Y-87179474D01*
X63971301Y-87211859D01*
X64153619Y-87304755D01*
X64348233Y-87367990D01*
X64550334Y-87400000D01*
X64754968Y-87400000D01*
X64957068Y-87367990D01*
X65151682Y-87304755D01*
X65334000Y-87211859D01*
X65378572Y-87179474D01*
X64699098Y-86500000D01*
X64705312Y-86500000D01*
X64807045Y-86472741D01*
X64898257Y-86420080D01*
X64972731Y-86345606D01*
X65025392Y-86254394D01*
X65052651Y-86152661D01*
X65052651Y-86146447D01*
X65732125Y-86825921D01*
X65764510Y-86781349D01*
X65857406Y-86599031D01*
X65920641Y-86404417D01*
X65952651Y-86202317D01*
X65952651Y-85997682D01*
X65920641Y-85795582D01*
X65857406Y-85600968D01*
X65764510Y-85418650D01*
X65732125Y-85374077D01*
X65732125Y-85374076D01*
X65052651Y-86053551D01*
X65052651Y-86047339D01*
X65025392Y-85945606D01*
X64972731Y-85854394D01*
X64898257Y-85779920D01*
X64807045Y-85727259D01*
X64705312Y-85700000D01*
X64699097Y-85700000D01*
X65146962Y-85252135D01*
X66852151Y-85252135D01*
X66852151Y-86947870D01*
X66852152Y-86947876D01*
X66858559Y-87007483D01*
X66908853Y-87142328D01*
X66908857Y-87142335D01*
X66995103Y-87257544D01*
X66995106Y-87257547D01*
X67110315Y-87343793D01*
X67110322Y-87343797D01*
X67245168Y-87394091D01*
X67245167Y-87394091D01*
X67252095Y-87394835D01*
X67304778Y-87400500D01*
X69000523Y-87400499D01*
X69060134Y-87394091D01*
X69194982Y-87343796D01*
X69310197Y-87257546D01*
X69396447Y-87142331D01*
X69446742Y-87007483D01*
X69453151Y-86947873D01*
X69453150Y-85252128D01*
X69446742Y-85192517D01*
X69396447Y-85057669D01*
X69396446Y-85057668D01*
X69396444Y-85057664D01*
X69310198Y-84942455D01*
X69310195Y-84942452D01*
X69194986Y-84856206D01*
X69194979Y-84856202D01*
X69060133Y-84805908D01*
X69060134Y-84805908D01*
X69000534Y-84799501D01*
X69000532Y-84799500D01*
X69000524Y-84799500D01*
X69000515Y-84799500D01*
X67304780Y-84799500D01*
X67304774Y-84799501D01*
X67245167Y-84805908D01*
X67110322Y-84856202D01*
X67110315Y-84856206D01*
X66995106Y-84942452D01*
X66995103Y-84942455D01*
X66908857Y-85057664D01*
X66908853Y-85057671D01*
X66858559Y-85192517D01*
X66852152Y-85252116D01*
X66852152Y-85252123D01*
X66852151Y-85252135D01*
X65146962Y-85252135D01*
X65378573Y-85020524D01*
X65378572Y-85020523D01*
X65334010Y-84988147D01*
X65334001Y-84988141D01*
X65151682Y-84895244D01*
X64957068Y-84832009D01*
X64754968Y-84800000D01*
X64550334Y-84800000D01*
X64348233Y-84832009D01*
X64153619Y-84895244D01*
X63971295Y-84988143D01*
X63926728Y-85020523D01*
X63926728Y-85020524D01*
X64606205Y-85700000D01*
X64599990Y-85700000D01*
X64498257Y-85727259D01*
X64407045Y-85779920D01*
X64332571Y-85854394D01*
X64279910Y-85945606D01*
X64252651Y-86047339D01*
X64252651Y-86053553D01*
X63573175Y-85374077D01*
X63573174Y-85374077D01*
X63540794Y-85418644D01*
X63447895Y-85600968D01*
X63384660Y-85795582D01*
X63352651Y-85997682D01*
X52200500Y-85997682D01*
X52200500Y-81551043D01*
X73651999Y-81551043D01*
X73690447Y-81744329D01*
X73690450Y-81744339D01*
X73765864Y-81926407D01*
X73765871Y-81926420D01*
X73875360Y-82090281D01*
X73875363Y-82090285D01*
X74014714Y-82229636D01*
X74014718Y-82229639D01*
X74178579Y-82339128D01*
X74178592Y-82339135D01*
X74360660Y-82414549D01*
X74360665Y-82414551D01*
X74360669Y-82414551D01*
X74360670Y-82414552D01*
X74553956Y-82453000D01*
X74553959Y-82453000D01*
X79906042Y-82453000D01*
X79973081Y-82472685D01*
X80011580Y-82511902D01*
X80017288Y-82521156D01*
X80141344Y-82645212D01*
X80290666Y-82737314D01*
X80457203Y-82792499D01*
X80559991Y-82803000D01*
X81860008Y-82802999D01*
X81962797Y-82792499D01*
X82129334Y-82737314D01*
X82278656Y-82645212D01*
X82402712Y-82521156D01*
X82494814Y-82371834D01*
X82521232Y-82292107D01*
X82524709Y-82284895D01*
X82542970Y-82264681D01*
X82558477Y-82242284D01*
X82566050Y-82239135D01*
X82571548Y-82233050D01*
X82597836Y-82225919D01*
X82622993Y-82215460D01*
X82633644Y-82215300D01*
X83267037Y-81581908D01*
X83284075Y-81645493D01*
X83349901Y-81759507D01*
X83442993Y-81852599D01*
X83557007Y-81918425D01*
X83620590Y-81935462D01*
X82988282Y-82567769D01*
X82988282Y-82567770D01*
X83042449Y-82607124D01*
X83231782Y-82703595D01*
X83433870Y-82769257D01*
X83643754Y-82802500D01*
X83856246Y-82802500D01*
X84066127Y-82769257D01*
X84066130Y-82769257D01*
X84268217Y-82703595D01*
X84457554Y-82607122D01*
X84511716Y-82567770D01*
X84511717Y-82567770D01*
X83879408Y-81935462D01*
X83942993Y-81918425D01*
X84057007Y-81852599D01*
X84150099Y-81759507D01*
X84215925Y-81645493D01*
X84232962Y-81581908D01*
X84865270Y-82214217D01*
X84865270Y-82214216D01*
X84904622Y-82160055D01*
X84909232Y-82151007D01*
X84957205Y-82100209D01*
X85025025Y-82083412D01*
X85091161Y-82105947D01*
X85130204Y-82151004D01*
X85134949Y-82160317D01*
X85259890Y-82332286D01*
X85410213Y-82482609D01*
X85582179Y-82607548D01*
X85582181Y-82607549D01*
X85582184Y-82607551D01*
X85771588Y-82704057D01*
X85973757Y-82769746D01*
X86183713Y-82803000D01*
X86183714Y-82803000D01*
X86396286Y-82803000D01*
X86396287Y-82803000D01*
X86606243Y-82769746D01*
X86808412Y-82704057D01*
X86997816Y-82607551D01*
X87052572Y-82567769D01*
X87169786Y-82482609D01*
X87169788Y-82482606D01*
X87169792Y-82482604D01*
X87320104Y-82332292D01*
X87320106Y-82332288D01*
X87320109Y-82332286D01*
X87445048Y-82160320D01*
X87445050Y-82160317D01*
X87445051Y-82160316D01*
X87449514Y-82151554D01*
X87497488Y-82100759D01*
X87565308Y-82083963D01*
X87631444Y-82106499D01*
X87670486Y-82151556D01*
X87674951Y-82160320D01*
X87799890Y-82332286D01*
X87950213Y-82482609D01*
X88122179Y-82607548D01*
X88122181Y-82607549D01*
X88122184Y-82607551D01*
X88311588Y-82704057D01*
X88513757Y-82769746D01*
X88723713Y-82803000D01*
X88723714Y-82803000D01*
X88936286Y-82803000D01*
X88936287Y-82803000D01*
X89146243Y-82769746D01*
X89348412Y-82704057D01*
X89537816Y-82607551D01*
X89592572Y-82567769D01*
X89709786Y-82482609D01*
X89709788Y-82482606D01*
X89709792Y-82482604D01*
X89860104Y-82332292D01*
X89860106Y-82332288D01*
X89860109Y-82332286D01*
X89985048Y-82160320D01*
X89985050Y-82160317D01*
X89985051Y-82160316D01*
X89989514Y-82151554D01*
X90037488Y-82100759D01*
X90105308Y-82083963D01*
X90171444Y-82106499D01*
X90210486Y-82151556D01*
X90214951Y-82160320D01*
X90339890Y-82332286D01*
X90490213Y-82482609D01*
X90662179Y-82607548D01*
X90662181Y-82607549D01*
X90662184Y-82607551D01*
X90851588Y-82704057D01*
X91053757Y-82769746D01*
X91263713Y-82803000D01*
X91263714Y-82803000D01*
X91476286Y-82803000D01*
X91476287Y-82803000D01*
X91686243Y-82769746D01*
X91888412Y-82704057D01*
X92077816Y-82607551D01*
X92132572Y-82567769D01*
X92249786Y-82482609D01*
X92249788Y-82482606D01*
X92249792Y-82482604D01*
X92400104Y-82332292D01*
X92400106Y-82332288D01*
X92400109Y-82332286D01*
X92525048Y-82160320D01*
X92525050Y-82160317D01*
X92525051Y-82160316D01*
X92529514Y-82151554D01*
X92577488Y-82100759D01*
X92645308Y-82083963D01*
X92711444Y-82106499D01*
X92750486Y-82151556D01*
X92754951Y-82160320D01*
X92879890Y-82332286D01*
X93030213Y-82482609D01*
X93202179Y-82607548D01*
X93202181Y-82607549D01*
X93202184Y-82607551D01*
X93391588Y-82704057D01*
X93593757Y-82769746D01*
X93803713Y-82803000D01*
X93803714Y-82803000D01*
X94016286Y-82803000D01*
X94016287Y-82803000D01*
X94226243Y-82769746D01*
X94428412Y-82704057D01*
X94617816Y-82607551D01*
X94672572Y-82567769D01*
X94789786Y-82482609D01*
X94789788Y-82482606D01*
X94789792Y-82482604D01*
X94940104Y-82332292D01*
X94940106Y-82332288D01*
X94940109Y-82332286D01*
X95065048Y-82160320D01*
X95065050Y-82160317D01*
X95065051Y-82160316D01*
X95069514Y-82151554D01*
X95117488Y-82100759D01*
X95185308Y-82083963D01*
X95251444Y-82106499D01*
X95290486Y-82151556D01*
X95294951Y-82160320D01*
X95419890Y-82332286D01*
X95570213Y-82482609D01*
X95742179Y-82607548D01*
X95742181Y-82607549D01*
X95742184Y-82607551D01*
X95931588Y-82704057D01*
X96133757Y-82769746D01*
X96343713Y-82803000D01*
X96343714Y-82803000D01*
X96556286Y-82803000D01*
X96556287Y-82803000D01*
X96766243Y-82769746D01*
X96968412Y-82704057D01*
X97157816Y-82607551D01*
X97212572Y-82567769D01*
X97329786Y-82482609D01*
X97329788Y-82482606D01*
X97329792Y-82482604D01*
X97480104Y-82332292D01*
X97480106Y-82332288D01*
X97480109Y-82332286D01*
X97605048Y-82160320D01*
X97605050Y-82160317D01*
X97605051Y-82160316D01*
X97609514Y-82151554D01*
X97657488Y-82100759D01*
X97725308Y-82083963D01*
X97791444Y-82106499D01*
X97830486Y-82151556D01*
X97834951Y-82160320D01*
X97959890Y-82332286D01*
X98110213Y-82482609D01*
X98282179Y-82607548D01*
X98282181Y-82607549D01*
X98282184Y-82607551D01*
X98471588Y-82704057D01*
X98673757Y-82769746D01*
X98883713Y-82803000D01*
X98883714Y-82803000D01*
X99096286Y-82803000D01*
X99096287Y-82803000D01*
X99306243Y-82769746D01*
X99508412Y-82704057D01*
X99697816Y-82607551D01*
X99752572Y-82567769D01*
X99869786Y-82482609D01*
X99869788Y-82482606D01*
X99869792Y-82482604D01*
X100020104Y-82332292D01*
X100020106Y-82332288D01*
X100020109Y-82332286D01*
X100145048Y-82160320D01*
X100145050Y-82160317D01*
X100145051Y-82160316D01*
X100241557Y-81970912D01*
X100307246Y-81768743D01*
X100340500Y-81558787D01*
X100340500Y-81346213D01*
X100307246Y-81136257D01*
X100241557Y-80934088D01*
X100145051Y-80744684D01*
X100145049Y-80744681D01*
X100145048Y-80744679D01*
X100020109Y-80572713D01*
X99869786Y-80422390D01*
X99697817Y-80297449D01*
X99688504Y-80292704D01*
X99637707Y-80244730D01*
X99620912Y-80176909D01*
X99643449Y-80110774D01*
X99688507Y-80071732D01*
X99697555Y-80067122D01*
X99751716Y-80027770D01*
X99751717Y-80027770D01*
X99119408Y-79395462D01*
X99182993Y-79378425D01*
X99297007Y-79312599D01*
X99390099Y-79219507D01*
X99455925Y-79105493D01*
X99472962Y-79041908D01*
X100105270Y-79674217D01*
X100105270Y-79674216D01*
X100144622Y-79620054D01*
X100241095Y-79430717D01*
X100306757Y-79228630D01*
X100306757Y-79228627D01*
X100340000Y-79018746D01*
X100340000Y-78806253D01*
X100306757Y-78596372D01*
X100306757Y-78596369D01*
X100241095Y-78394282D01*
X100144624Y-78204949D01*
X100105270Y-78150782D01*
X100105269Y-78150782D01*
X99472962Y-78783090D01*
X99455925Y-78719507D01*
X99390099Y-78605493D01*
X99297007Y-78512401D01*
X99182993Y-78446575D01*
X99119409Y-78429537D01*
X99751716Y-77797228D01*
X99697550Y-77757875D01*
X99508217Y-77661404D01*
X99306129Y-77595742D01*
X99096246Y-77562500D01*
X98883754Y-77562500D01*
X98673872Y-77595742D01*
X98673869Y-77595742D01*
X98471782Y-77661404D01*
X98282439Y-77757880D01*
X98228282Y-77797227D01*
X98228282Y-77797228D01*
X98860591Y-78429537D01*
X98797007Y-78446575D01*
X98682993Y-78512401D01*
X98589901Y-78605493D01*
X98524075Y-78719507D01*
X98507037Y-78783091D01*
X97874728Y-78150782D01*
X97874727Y-78150782D01*
X97835380Y-78204940D01*
X97835376Y-78204946D01*
X97830760Y-78214005D01*
X97782781Y-78264797D01*
X97714959Y-78281587D01*
X97648826Y-78259043D01*
X97609794Y-78213993D01*
X97605051Y-78204684D01*
X97605049Y-78204681D01*
X97605048Y-78204679D01*
X97480109Y-78032713D01*
X97329786Y-77882390D01*
X97157820Y-77757451D01*
X96968414Y-77660944D01*
X96968413Y-77660943D01*
X96968412Y-77660943D01*
X96766243Y-77595254D01*
X96766241Y-77595253D01*
X96766240Y-77595253D01*
X96604957Y-77569708D01*
X96556287Y-77562000D01*
X96343713Y-77562000D01*
X96295042Y-77569708D01*
X96133760Y-77595253D01*
X95931585Y-77660944D01*
X95742179Y-77757451D01*
X95570213Y-77882390D01*
X95419890Y-78032713D01*
X95294949Y-78204682D01*
X95290484Y-78213446D01*
X95242509Y-78264242D01*
X95174688Y-78281036D01*
X95108553Y-78258498D01*
X95069516Y-78213446D01*
X95065050Y-78204682D01*
X94940109Y-78032713D01*
X94789786Y-77882390D01*
X94617820Y-77757451D01*
X94428414Y-77660944D01*
X94428413Y-77660943D01*
X94428412Y-77660943D01*
X94226243Y-77595254D01*
X94226241Y-77595253D01*
X94226240Y-77595253D01*
X94064957Y-77569708D01*
X94016287Y-77562000D01*
X93803713Y-77562000D01*
X93755042Y-77569708D01*
X93593760Y-77595253D01*
X93391585Y-77660944D01*
X93202179Y-77757451D01*
X93030213Y-77882390D01*
X92879890Y-78032713D01*
X92754949Y-78204682D01*
X92750484Y-78213446D01*
X92702509Y-78264242D01*
X92634688Y-78281036D01*
X92568553Y-78258498D01*
X92529516Y-78213446D01*
X92525050Y-78204682D01*
X92400109Y-78032713D01*
X92249786Y-77882390D01*
X92077820Y-77757451D01*
X91888414Y-77660944D01*
X91888413Y-77660943D01*
X91888412Y-77660943D01*
X91686243Y-77595254D01*
X91686241Y-77595253D01*
X91686240Y-77595253D01*
X91524957Y-77569708D01*
X91476287Y-77562000D01*
X91263713Y-77562000D01*
X91215042Y-77569708D01*
X91053760Y-77595253D01*
X90851585Y-77660944D01*
X90662179Y-77757451D01*
X90490213Y-77882390D01*
X90339890Y-78032713D01*
X90214949Y-78204682D01*
X90210484Y-78213446D01*
X90162509Y-78264242D01*
X90094688Y-78281036D01*
X90028553Y-78258498D01*
X89989516Y-78213446D01*
X89985050Y-78204682D01*
X89860109Y-78032713D01*
X89709786Y-77882390D01*
X89537820Y-77757451D01*
X89348414Y-77660944D01*
X89348413Y-77660943D01*
X89348412Y-77660943D01*
X89146243Y-77595254D01*
X89146241Y-77595253D01*
X89146240Y-77595253D01*
X88984957Y-77569708D01*
X88936287Y-77562000D01*
X88723713Y-77562000D01*
X88675042Y-77569708D01*
X88513760Y-77595253D01*
X88311585Y-77660944D01*
X88122179Y-77757451D01*
X87950213Y-77882390D01*
X87799890Y-78032713D01*
X87674949Y-78204682D01*
X87670484Y-78213446D01*
X87622509Y-78264242D01*
X87554688Y-78281036D01*
X87488553Y-78258498D01*
X87449516Y-78213446D01*
X87445050Y-78204682D01*
X87320109Y-78032713D01*
X87169786Y-77882390D01*
X86997820Y-77757451D01*
X86808414Y-77660944D01*
X86808413Y-77660943D01*
X86808412Y-77660943D01*
X86606243Y-77595254D01*
X86606241Y-77595253D01*
X86606240Y-77595253D01*
X86444957Y-77569708D01*
X86396287Y-77562000D01*
X86183713Y-77562000D01*
X86135042Y-77569708D01*
X85973760Y-77595253D01*
X85771585Y-77660944D01*
X85582179Y-77757451D01*
X85410213Y-77882390D01*
X85259890Y-78032713D01*
X85134949Y-78204682D01*
X85130484Y-78213446D01*
X85082509Y-78264242D01*
X85014688Y-78281036D01*
X84948553Y-78258498D01*
X84909516Y-78213446D01*
X84905050Y-78204682D01*
X84780109Y-78032713D01*
X84629786Y-77882390D01*
X84457820Y-77757451D01*
X84268414Y-77660944D01*
X84268413Y-77660943D01*
X84268412Y-77660943D01*
X84066243Y-77595254D01*
X84066241Y-77595253D01*
X84066240Y-77595253D01*
X83904957Y-77569708D01*
X83856287Y-77562000D01*
X83643713Y-77562000D01*
X83595042Y-77569708D01*
X83433760Y-77595253D01*
X83231585Y-77660944D01*
X83042179Y-77757451D01*
X82870213Y-77882390D01*
X82719890Y-78032713D01*
X82594949Y-78204682D01*
X82590484Y-78213446D01*
X82542509Y-78264242D01*
X82474688Y-78281036D01*
X82408553Y-78258498D01*
X82369516Y-78213446D01*
X82365050Y-78204682D01*
X82240109Y-78032713D01*
X82089786Y-77882390D01*
X81917820Y-77757451D01*
X81728414Y-77660944D01*
X81728413Y-77660943D01*
X81728412Y-77660943D01*
X81526243Y-77595254D01*
X81526241Y-77595253D01*
X81526240Y-77595253D01*
X81364957Y-77569708D01*
X81316287Y-77562000D01*
X81103713Y-77562000D01*
X81055042Y-77569708D01*
X80893760Y-77595253D01*
X80691585Y-77660944D01*
X80502179Y-77757451D01*
X80330213Y-77882390D01*
X80179890Y-78032713D01*
X80054951Y-78204679D01*
X79958444Y-78394085D01*
X79892753Y-78596260D01*
X79859500Y-78806213D01*
X79859500Y-79018786D01*
X79892753Y-79228739D01*
X79958444Y-79430914D01*
X80054951Y-79620320D01*
X80179890Y-79792286D01*
X80330209Y-79942605D01*
X80335106Y-79946163D01*
X80377771Y-80001494D01*
X80383750Y-80071107D01*
X80351144Y-80132902D01*
X80301229Y-80164185D01*
X80290673Y-80167683D01*
X80290663Y-80167687D01*
X80141342Y-80259789D01*
X80017287Y-80383844D01*
X80011580Y-80393098D01*
X79959632Y-80439822D01*
X79906042Y-80452000D01*
X74553957Y-80452000D01*
X74360670Y-80490447D01*
X74360660Y-80490450D01*
X74178592Y-80565864D01*
X74178579Y-80565871D01*
X74014718Y-80675360D01*
X74014714Y-80675363D01*
X73875363Y-80814714D01*
X73875360Y-80814718D01*
X73765871Y-80978579D01*
X73765864Y-80978592D01*
X73690450Y-81160660D01*
X73690447Y-81160670D01*
X73652000Y-81353956D01*
X73652000Y-81353959D01*
X73652000Y-81551041D01*
X73652000Y-81551043D01*
X73651999Y-81551043D01*
X52200500Y-81551043D01*
X52200500Y-72702135D01*
X62562000Y-72702135D01*
X62562000Y-74397870D01*
X62562001Y-74397876D01*
X62568408Y-74457483D01*
X62618702Y-74592328D01*
X62618706Y-74592335D01*
X62704952Y-74707544D01*
X62704955Y-74707547D01*
X62820164Y-74793793D01*
X62820171Y-74793797D01*
X62955017Y-74844091D01*
X62955016Y-74844091D01*
X62961944Y-74844835D01*
X63014627Y-74850500D01*
X64710372Y-74850499D01*
X64769983Y-74844091D01*
X64904831Y-74793796D01*
X65020046Y-74707546D01*
X65106296Y-74592331D01*
X65156591Y-74457483D01*
X65163000Y-74397873D01*
X65162999Y-72702128D01*
X65156591Y-72642517D01*
X65106296Y-72507669D01*
X65106295Y-72507668D01*
X65106293Y-72507664D01*
X65020047Y-72392455D01*
X65020044Y-72392452D01*
X64904835Y-72306206D01*
X64904828Y-72306202D01*
X64769982Y-72255908D01*
X64769983Y-72255908D01*
X64710383Y-72249501D01*
X64710381Y-72249500D01*
X64710373Y-72249500D01*
X64710364Y-72249500D01*
X63014629Y-72249500D01*
X63014623Y-72249501D01*
X62955016Y-72255908D01*
X62820171Y-72306202D01*
X62820164Y-72306206D01*
X62704955Y-72392452D01*
X62704952Y-72392455D01*
X62618706Y-72507664D01*
X62618702Y-72507671D01*
X62568408Y-72642517D01*
X62562001Y-72702116D01*
X62562001Y-72702123D01*
X62562000Y-72702135D01*
X52200500Y-72702135D01*
X52200500Y-69947682D01*
X62562500Y-69947682D01*
X62562500Y-70152317D01*
X62594509Y-70354417D01*
X62657744Y-70549031D01*
X62750641Y-70731350D01*
X62750647Y-70731359D01*
X62783023Y-70775921D01*
X62783024Y-70775922D01*
X63462500Y-70096446D01*
X63462500Y-70102661D01*
X63489759Y-70204394D01*
X63542420Y-70295606D01*
X63616894Y-70370080D01*
X63708106Y-70422741D01*
X63809839Y-70450000D01*
X63816053Y-70450000D01*
X63136576Y-71129474D01*
X63181150Y-71161859D01*
X63363468Y-71254755D01*
X63558082Y-71317990D01*
X63760183Y-71350000D01*
X63964817Y-71350000D01*
X64166917Y-71317990D01*
X64361531Y-71254755D01*
X64543849Y-71161859D01*
X64588421Y-71129474D01*
X63908947Y-70450000D01*
X63915161Y-70450000D01*
X64016894Y-70422741D01*
X64108106Y-70370080D01*
X64182580Y-70295606D01*
X64235241Y-70204394D01*
X64262500Y-70102661D01*
X64262500Y-70096447D01*
X64941974Y-70775921D01*
X64974359Y-70731349D01*
X65067255Y-70549031D01*
X65130490Y-70354417D01*
X65162500Y-70152317D01*
X65162500Y-69947682D01*
X65130490Y-69745582D01*
X65067255Y-69550968D01*
X64974359Y-69368650D01*
X64941974Y-69324077D01*
X64941974Y-69324076D01*
X64262500Y-70003551D01*
X64262500Y-69997339D01*
X64235241Y-69895606D01*
X64182580Y-69804394D01*
X64108106Y-69729920D01*
X64016894Y-69677259D01*
X63915161Y-69650000D01*
X63908946Y-69650000D01*
X64588422Y-68970524D01*
X64588421Y-68970523D01*
X64543859Y-68938147D01*
X64543850Y-68938141D01*
X64361531Y-68845244D01*
X64166917Y-68782009D01*
X63964817Y-68750000D01*
X63760183Y-68750000D01*
X63558082Y-68782009D01*
X63363468Y-68845244D01*
X63181144Y-68938143D01*
X63136577Y-68970523D01*
X63136577Y-68970524D01*
X63816054Y-69650000D01*
X63809839Y-69650000D01*
X63708106Y-69677259D01*
X63616894Y-69729920D01*
X63542420Y-69804394D01*
X63489759Y-69895606D01*
X63462500Y-69997339D01*
X63462500Y-70003553D01*
X62783024Y-69324077D01*
X62783023Y-69324077D01*
X62750643Y-69368644D01*
X62657744Y-69550968D01*
X62594509Y-69745582D01*
X62562500Y-69947682D01*
X52200500Y-69947682D01*
X52200500Y-67198543D01*
X56936999Y-67198543D01*
X56975447Y-67391829D01*
X56975450Y-67391839D01*
X57050864Y-67573907D01*
X57050871Y-67573920D01*
X57160360Y-67737781D01*
X57160363Y-67737785D01*
X57299714Y-67877136D01*
X57299718Y-67877139D01*
X57463579Y-67986628D01*
X57463592Y-67986635D01*
X57645660Y-68062049D01*
X57645665Y-68062051D01*
X57645669Y-68062051D01*
X57645670Y-68062052D01*
X57838956Y-68100500D01*
X59726046Y-68100500D01*
X59726051Y-68100501D01*
X59767354Y-68100500D01*
X59767513Y-68100546D01*
X59818761Y-68100545D01*
X59818761Y-68100546D01*
X60036517Y-68100543D01*
X60470687Y-68066369D01*
X60900837Y-67998234D01*
X61324315Y-67896561D01*
X61324325Y-67896557D01*
X61324328Y-67896557D01*
X61444387Y-67857545D01*
X61738510Y-67761975D01*
X62140869Y-67595307D01*
X62182868Y-67573907D01*
X62528893Y-67397592D01*
X62528911Y-67397583D01*
X62900243Y-67170024D01*
X63252577Y-66914032D01*
X63583739Y-66631184D01*
X63737714Y-66477205D01*
X63737714Y-66477206D01*
X63783108Y-66431811D01*
X64428100Y-65786817D01*
X64489423Y-65753333D01*
X64515781Y-65750499D01*
X68197871Y-65750499D01*
X68197872Y-65750499D01*
X68257483Y-65744091D01*
X68392331Y-65693796D01*
X68507546Y-65607546D01*
X68593796Y-65492331D01*
X68644091Y-65357483D01*
X68650500Y-65297873D01*
X68650499Y-63202128D01*
X68644091Y-63142517D01*
X68642160Y-63137341D01*
X68593797Y-63007671D01*
X68593793Y-63007664D01*
X68507547Y-62892455D01*
X68507544Y-62892452D01*
X68392335Y-62806206D01*
X68392328Y-62806202D01*
X68257482Y-62755908D01*
X68257483Y-62755908D01*
X68197883Y-62749501D01*
X68197881Y-62749500D01*
X68197873Y-62749500D01*
X68197864Y-62749500D01*
X63502129Y-62749500D01*
X63502123Y-62749501D01*
X63442516Y-62755908D01*
X63307671Y-62806202D01*
X63307664Y-62806206D01*
X63192455Y-62892452D01*
X63192452Y-62892455D01*
X63106206Y-63007664D01*
X63106202Y-63007671D01*
X63055908Y-63142517D01*
X63050606Y-63191839D01*
X63049501Y-63202123D01*
X63049500Y-63202135D01*
X63049500Y-64284215D01*
X63029815Y-64351254D01*
X63013181Y-64371896D01*
X62388334Y-64996743D01*
X62388329Y-64996748D01*
X62370224Y-65014852D01*
X62338298Y-65046778D01*
X62324925Y-65060151D01*
X62320519Y-65064346D01*
X62069791Y-65291600D01*
X62060384Y-65299320D01*
X61791044Y-65499083D01*
X61780926Y-65505844D01*
X61493292Y-65678249D01*
X61482560Y-65683985D01*
X61179425Y-65827362D01*
X61168183Y-65832019D01*
X60852449Y-65944995D01*
X60840804Y-65948527D01*
X60515511Y-66030013D01*
X60503576Y-66032388D01*
X60171870Y-66081595D01*
X60159760Y-66082788D01*
X59822707Y-66099351D01*
X59816621Y-66099500D01*
X57838957Y-66099500D01*
X57645670Y-66137947D01*
X57645660Y-66137950D01*
X57463592Y-66213364D01*
X57463579Y-66213371D01*
X57299718Y-66322860D01*
X57299714Y-66322863D01*
X57160363Y-66462214D01*
X57160360Y-66462218D01*
X57050871Y-66626079D01*
X57050864Y-66626092D01*
X56975450Y-66808160D01*
X56975447Y-66808170D01*
X56937000Y-67001456D01*
X56937000Y-67001459D01*
X56937000Y-67198541D01*
X56937000Y-67198543D01*
X56936999Y-67198543D01*
X52200500Y-67198543D01*
X52200500Y-65364752D01*
X52200649Y-65358668D01*
X52214701Y-65072632D01*
X52215894Y-65060522D01*
X52225354Y-64996748D01*
X52257467Y-64780255D01*
X52259834Y-64768353D01*
X52328687Y-64493479D01*
X52332208Y-64481873D01*
X52427666Y-64215087D01*
X52432308Y-64203879D01*
X52553466Y-63947711D01*
X52559181Y-63937019D01*
X52704852Y-63693983D01*
X52711595Y-63683890D01*
X52880393Y-63456292D01*
X52888096Y-63446907D01*
X53078366Y-63236976D01*
X53086959Y-63228384D01*
X53296908Y-63038097D01*
X53306293Y-63030394D01*
X53533890Y-62861596D01*
X53543983Y-62854853D01*
X53787020Y-62709183D01*
X53797712Y-62703467D01*
X54053879Y-62582309D01*
X54065087Y-62577667D01*
X54331873Y-62482209D01*
X54343479Y-62478688D01*
X54618353Y-62409835D01*
X54630255Y-62407468D01*
X54910528Y-62365894D01*
X54922624Y-62364702D01*
X55208700Y-62350648D01*
X55214759Y-62350500D01*
X55304410Y-62350500D01*
X59425500Y-62350500D01*
X59492539Y-62370185D01*
X59538294Y-62422989D01*
X59549500Y-62474500D01*
X59549500Y-62568097D01*
X59586446Y-62801368D01*
X59659433Y-63025996D01*
X59749175Y-63202123D01*
X59766657Y-63236433D01*
X59905483Y-63427510D01*
X60072490Y-63594517D01*
X60263567Y-63733343D01*
X60362991Y-63784002D01*
X60474003Y-63840566D01*
X60474005Y-63840566D01*
X60474008Y-63840568D01*
X60540120Y-63862049D01*
X60698631Y-63913553D01*
X60931903Y-63950500D01*
X60931908Y-63950500D01*
X61168097Y-63950500D01*
X61401368Y-63913553D01*
X61625992Y-63840568D01*
X61836433Y-63733343D01*
X62027510Y-63594517D01*
X62194517Y-63427510D01*
X62333343Y-63236433D01*
X62440568Y-63025992D01*
X62513553Y-62801368D01*
X62528152Y-62709194D01*
X62550500Y-62568097D01*
X62550500Y-60772566D01*
X91499494Y-60772566D01*
X91499500Y-60876086D01*
X91499500Y-61017880D01*
X91499500Y-61485038D01*
X91499500Y-62001459D01*
X91499500Y-63501459D01*
X91499500Y-66198541D01*
X91499500Y-66198543D01*
X91499499Y-66198543D01*
X91537947Y-66391829D01*
X91537950Y-66391839D01*
X91613364Y-66573907D01*
X91613371Y-66573920D01*
X91722860Y-66737781D01*
X91722863Y-66737785D01*
X91862214Y-66877136D01*
X91862218Y-66877139D01*
X92026079Y-66986628D01*
X92026092Y-66986635D01*
X92208160Y-67062049D01*
X92208165Y-67062051D01*
X92208169Y-67062051D01*
X92208170Y-67062052D01*
X92401456Y-67100500D01*
X92401459Y-67100500D01*
X92598543Y-67100500D01*
X92728582Y-67074632D01*
X92791835Y-67062051D01*
X92973914Y-66986632D01*
X93137782Y-66877139D01*
X93187761Y-66827160D01*
X93249084Y-66793674D01*
X93318775Y-66798658D01*
X93344334Y-66811738D01*
X93367415Y-66827160D01*
X93473453Y-66898013D01*
X93473455Y-66898014D01*
X93473459Y-66898016D01*
X93596363Y-66948923D01*
X93637334Y-66965894D01*
X93637336Y-66965894D01*
X93637341Y-66965896D01*
X93811304Y-67000499D01*
X93811307Y-67000500D01*
X93811309Y-67000500D01*
X93988693Y-67000500D01*
X93988694Y-67000499D01*
X94058430Y-66986628D01*
X94162658Y-66965896D01*
X94162661Y-66965894D01*
X94162666Y-66965894D01*
X94326547Y-66898013D01*
X94431111Y-66828145D01*
X94497785Y-66807268D01*
X94565166Y-66825752D01*
X94568849Y-66828118D01*
X94673453Y-66898013D01*
X94673455Y-66898014D01*
X94673459Y-66898016D01*
X94796363Y-66948923D01*
X94837334Y-66965894D01*
X94837336Y-66965894D01*
X94837341Y-66965896D01*
X95011304Y-67000499D01*
X95011307Y-67000500D01*
X95011309Y-67000500D01*
X95188693Y-67000500D01*
X95188694Y-67000499D01*
X95258430Y-66986628D01*
X95362658Y-66965896D01*
X95362661Y-66965894D01*
X95362666Y-66965894D01*
X95526547Y-66898013D01*
X95674035Y-66799464D01*
X95799464Y-66674035D01*
X95898013Y-66526547D01*
X95965894Y-66362666D01*
X95973812Y-66322863D01*
X96000499Y-66188695D01*
X96000500Y-66188693D01*
X96000500Y-66011306D01*
X96000499Y-66011304D01*
X95965896Y-65837341D01*
X95965893Y-65837332D01*
X95962843Y-65829968D01*
X95898013Y-65673453D01*
X95898011Y-65673451D01*
X95898011Y-65673449D01*
X95821398Y-65558790D01*
X95800520Y-65492112D01*
X95800500Y-65489899D01*
X95800500Y-64010099D01*
X95820185Y-63943060D01*
X95821398Y-63941208D01*
X95898013Y-63826547D01*
X95965894Y-63662666D01*
X95979451Y-63594514D01*
X96000499Y-63488695D01*
X96000500Y-63488693D01*
X96000500Y-63311306D01*
X96000499Y-63311304D01*
X95965896Y-63137341D01*
X95965893Y-63137332D01*
X95908406Y-62998543D01*
X110699499Y-62998543D01*
X110737947Y-63191829D01*
X110737950Y-63191839D01*
X110813364Y-63373907D01*
X110813371Y-63373920D01*
X110922860Y-63537781D01*
X110922863Y-63537785D01*
X111062214Y-63677136D01*
X111062218Y-63677139D01*
X111226079Y-63786628D01*
X111226092Y-63786635D01*
X111356295Y-63840566D01*
X111408165Y-63862051D01*
X111408169Y-63862051D01*
X111408170Y-63862052D01*
X111601456Y-63900500D01*
X111601459Y-63900500D01*
X111798543Y-63900500D01*
X111928582Y-63874632D01*
X111991835Y-63862051D01*
X112173914Y-63786632D01*
X112337782Y-63677139D01*
X112477139Y-63537782D01*
X112586632Y-63373914D01*
X112662051Y-63191835D01*
X112692630Y-63038106D01*
X112700500Y-62998543D01*
X112700500Y-54840316D01*
X121749500Y-54840316D01*
X121749500Y-55159683D01*
X121780803Y-55477522D01*
X121843109Y-55790754D01*
X121935820Y-56096382D01*
X122058040Y-56391446D01*
X122058042Y-56391451D01*
X122208584Y-56673094D01*
X122208601Y-56673122D01*
X122386012Y-56938638D01*
X122386029Y-56938661D01*
X122588638Y-57185540D01*
X122814459Y-57411361D01*
X122814464Y-57411365D01*
X122814465Y-57411366D01*
X123061344Y-57613975D01*
X123061351Y-57613980D01*
X123061361Y-57613987D01*
X123326877Y-57791398D01*
X123326882Y-57791401D01*
X123326894Y-57791409D01*
X123326903Y-57791413D01*
X123326905Y-57791415D01*
X123608548Y-57941957D01*
X123608550Y-57941957D01*
X123608556Y-57941961D01*
X123903619Y-58064180D01*
X124209240Y-58156889D01*
X124522477Y-58219196D01*
X124840313Y-58250500D01*
X124840316Y-58250500D01*
X125159684Y-58250500D01*
X125159687Y-58250500D01*
X125477523Y-58219196D01*
X125790760Y-58156889D01*
X126096381Y-58064180D01*
X126391444Y-57941961D01*
X126673106Y-57791409D01*
X126938656Y-57613975D01*
X127185535Y-57411366D01*
X127411366Y-57185535D01*
X127613975Y-56938656D01*
X127791409Y-56673106D01*
X127941961Y-56391444D01*
X128064180Y-56096381D01*
X128156889Y-55790760D01*
X128219196Y-55477523D01*
X128250500Y-55159687D01*
X128250500Y-54840313D01*
X128219196Y-54522477D01*
X128156889Y-54209240D01*
X128064180Y-53903619D01*
X127941961Y-53608556D01*
X127941749Y-53608160D01*
X127791415Y-53326905D01*
X127791413Y-53326903D01*
X127791409Y-53326894D01*
X127778895Y-53308165D01*
X127613987Y-53061361D01*
X127613980Y-53061351D01*
X127613975Y-53061344D01*
X127411366Y-52814465D01*
X127411365Y-52814464D01*
X127411361Y-52814459D01*
X127185540Y-52588638D01*
X126938661Y-52386029D01*
X126938638Y-52386012D01*
X126673122Y-52208601D01*
X126673094Y-52208584D01*
X126391451Y-52058042D01*
X126391446Y-52058040D01*
X126096382Y-51935820D01*
X125790754Y-51843109D01*
X125477521Y-51780803D01*
X125477522Y-51780803D01*
X125238141Y-51757227D01*
X125159687Y-51749500D01*
X124840313Y-51749500D01*
X124767822Y-51756639D01*
X124522477Y-51780803D01*
X124209245Y-51843109D01*
X123903617Y-51935820D01*
X123608553Y-52058040D01*
X123608548Y-52058042D01*
X123326905Y-52208584D01*
X123326877Y-52208601D01*
X123061361Y-52386012D01*
X123061338Y-52386029D01*
X122814459Y-52588638D01*
X122588638Y-52814459D01*
X122386029Y-53061338D01*
X122386012Y-53061361D01*
X122208601Y-53326877D01*
X122208584Y-53326905D01*
X122058042Y-53608548D01*
X122058040Y-53608553D01*
X121935820Y-53903617D01*
X121843109Y-54209245D01*
X121780803Y-54522477D01*
X121770238Y-54629751D01*
X121750305Y-54832145D01*
X121749500Y-54840316D01*
X112700500Y-54840316D01*
X112700500Y-53501456D01*
X112662052Y-53308170D01*
X112662051Y-53308169D01*
X112662051Y-53308165D01*
X112609264Y-53180724D01*
X112586635Y-53126092D01*
X112586628Y-53126079D01*
X112477139Y-52962218D01*
X112477136Y-52962214D01*
X112337785Y-52822863D01*
X112337781Y-52822860D01*
X112173920Y-52713371D01*
X112173907Y-52713364D01*
X111991839Y-52637950D01*
X111991829Y-52637947D01*
X111798543Y-52599500D01*
X111798541Y-52599500D01*
X111601459Y-52599500D01*
X111601457Y-52599500D01*
X111408170Y-52637947D01*
X111408160Y-52637950D01*
X111226092Y-52713364D01*
X111226079Y-52713371D01*
X111062218Y-52822860D01*
X111062214Y-52822863D01*
X110922863Y-52962214D01*
X110922860Y-52962218D01*
X110813371Y-53126079D01*
X110813364Y-53126092D01*
X110737950Y-53308160D01*
X110737947Y-53308170D01*
X110699500Y-53501456D01*
X110699500Y-53501459D01*
X110699500Y-62998541D01*
X110699500Y-62998543D01*
X110699499Y-62998543D01*
X95908406Y-62998543D01*
X95898016Y-62973459D01*
X95898009Y-62973446D01*
X95799464Y-62825965D01*
X95799461Y-62825961D01*
X95674038Y-62700538D01*
X95674034Y-62700535D01*
X95526553Y-62601990D01*
X95526540Y-62601983D01*
X95362667Y-62534106D01*
X95362658Y-62534103D01*
X95188694Y-62499500D01*
X95188691Y-62499500D01*
X95011309Y-62499500D01*
X95011306Y-62499500D01*
X94837341Y-62534103D01*
X94837332Y-62534106D01*
X94673459Y-62601983D01*
X94673446Y-62601990D01*
X94568891Y-62671853D01*
X94502214Y-62692731D01*
X94434834Y-62674247D01*
X94431109Y-62671853D01*
X94326553Y-62601990D01*
X94326540Y-62601983D01*
X94162667Y-62534106D01*
X94162658Y-62534103D01*
X93988694Y-62499500D01*
X93988691Y-62499500D01*
X93811309Y-62499500D01*
X93811304Y-62499500D01*
X93648691Y-62531846D01*
X93579100Y-62525619D01*
X93523922Y-62482756D01*
X93500678Y-62416866D01*
X93500500Y-62410229D01*
X93500500Y-61052027D01*
X93520185Y-60984988D01*
X93526109Y-60976559D01*
X93619887Y-60854323D01*
X93730200Y-60663215D01*
X93814626Y-60459345D01*
X93871721Y-60246199D01*
X93900507Y-60027424D01*
X93900500Y-59917094D01*
X93900500Y-59911158D01*
X93900500Y-56888936D01*
X98599500Y-56888936D01*
X98599500Y-57066327D01*
X98634103Y-57240290D01*
X98634106Y-57240299D01*
X98701984Y-57404174D01*
X98701985Y-57404175D01*
X98701987Y-57404179D01*
X98728602Y-57444010D01*
X98749480Y-57510687D01*
X98749500Y-57512901D01*
X98749500Y-59864729D01*
X98729815Y-59931768D01*
X98728602Y-59933620D01*
X98701988Y-59973449D01*
X98701987Y-59973452D01*
X98634106Y-60137332D01*
X98634103Y-60137341D01*
X98599500Y-60311304D01*
X98599500Y-60488695D01*
X98634103Y-60662658D01*
X98634106Y-60662667D01*
X98701983Y-60826540D01*
X98701990Y-60826553D01*
X98800535Y-60974034D01*
X98800538Y-60974038D01*
X98925961Y-61099461D01*
X98925965Y-61099464D01*
X99073446Y-61198009D01*
X99073459Y-61198016D01*
X99196363Y-61248923D01*
X99237334Y-61265894D01*
X99237336Y-61265894D01*
X99237341Y-61265896D01*
X99411304Y-61300499D01*
X99411307Y-61300500D01*
X99411309Y-61300500D01*
X99588693Y-61300500D01*
X99588694Y-61300499D01*
X99646682Y-61288964D01*
X99762658Y-61265896D01*
X99762661Y-61265894D01*
X99762666Y-61265894D01*
X99926547Y-61198013D01*
X100074035Y-61099464D01*
X100199464Y-60974035D01*
X100298013Y-60826547D01*
X100365894Y-60662666D01*
X100367287Y-60655667D01*
X100400499Y-60488695D01*
X100400500Y-60488693D01*
X100400500Y-60311306D01*
X100400499Y-60311304D01*
X100365896Y-60137341D01*
X100365893Y-60137332D01*
X100365643Y-60136729D01*
X100298013Y-59973453D01*
X100298011Y-59973451D01*
X100298011Y-59973449D01*
X100271398Y-59933620D01*
X100250520Y-59866942D01*
X100250500Y-59864729D01*
X100250500Y-57512901D01*
X100270185Y-57445862D01*
X100271398Y-57444010D01*
X100298013Y-57404179D01*
X100365894Y-57240298D01*
X100400500Y-57066323D01*
X100400500Y-56888941D01*
X100400500Y-56888938D01*
X100400499Y-56888936D01*
X100365896Y-56714973D01*
X100365893Y-56714964D01*
X100298016Y-56551091D01*
X100298009Y-56551078D01*
X100199464Y-56403597D01*
X100199461Y-56403593D01*
X100074038Y-56278170D01*
X100074034Y-56278167D01*
X99926553Y-56179622D01*
X99926540Y-56179615D01*
X99762667Y-56111738D01*
X99762658Y-56111735D01*
X99588694Y-56077132D01*
X99588691Y-56077132D01*
X99411309Y-56077132D01*
X99411306Y-56077132D01*
X99237341Y-56111735D01*
X99237332Y-56111738D01*
X99073459Y-56179615D01*
X99073446Y-56179622D01*
X98925965Y-56278167D01*
X98925961Y-56278170D01*
X98800538Y-56403593D01*
X98800535Y-56403597D01*
X98701990Y-56551078D01*
X98701983Y-56551091D01*
X98634106Y-56714964D01*
X98634103Y-56714973D01*
X98599500Y-56888936D01*
X93900500Y-56888936D01*
X93900500Y-51175459D01*
X93900500Y-51175456D01*
X93862052Y-50982170D01*
X93862051Y-50982169D01*
X93862051Y-50982165D01*
X93839147Y-50926870D01*
X93786635Y-50800092D01*
X93786628Y-50800079D01*
X93677139Y-50636218D01*
X93677136Y-50636214D01*
X93537785Y-50496863D01*
X93537781Y-50496860D01*
X93373920Y-50387371D01*
X93373907Y-50387364D01*
X93191839Y-50311950D01*
X93191829Y-50311947D01*
X92998543Y-50273500D01*
X92998541Y-50273500D01*
X92801459Y-50273500D01*
X92801457Y-50273500D01*
X92608170Y-50311947D01*
X92608160Y-50311950D01*
X92426092Y-50387364D01*
X92426079Y-50387371D01*
X92262218Y-50496860D01*
X92262214Y-50496863D01*
X92122863Y-50636214D01*
X92122860Y-50636218D01*
X92013371Y-50800079D01*
X92013364Y-50800092D01*
X91937950Y-50982160D01*
X91937947Y-50982170D01*
X91899500Y-51175456D01*
X91899500Y-59748013D01*
X91879815Y-59815052D01*
X91873877Y-59823498D01*
X91780168Y-59945625D01*
X91780162Y-59945634D01*
X91669839Y-60136729D01*
X91669835Y-60136737D01*
X91585390Y-60340624D01*
X91528286Y-60553771D01*
X91499495Y-60772555D01*
X91499494Y-60772566D01*
X62550500Y-60772566D01*
X62550500Y-60131902D01*
X62513553Y-59898631D01*
X62464614Y-59748013D01*
X62440568Y-59674008D01*
X62440566Y-59674005D01*
X62440566Y-59674003D01*
X62351164Y-59498543D01*
X79699499Y-59498543D01*
X79737947Y-59691829D01*
X79737950Y-59691839D01*
X79813364Y-59873907D01*
X79813371Y-59873920D01*
X79922860Y-60037781D01*
X79922863Y-60037785D01*
X80062214Y-60177136D01*
X80062218Y-60177139D01*
X80226079Y-60286628D01*
X80226092Y-60286635D01*
X80350810Y-60338294D01*
X80408165Y-60362051D01*
X80408169Y-60362051D01*
X80408170Y-60362052D01*
X80601456Y-60400500D01*
X80601459Y-60400500D01*
X80798543Y-60400500D01*
X80928582Y-60374632D01*
X80991835Y-60362051D01*
X81173914Y-60286632D01*
X81337782Y-60177139D01*
X81477139Y-60037782D01*
X81586632Y-59873914D01*
X81662051Y-59691835D01*
X81700500Y-59498541D01*
X81700500Y-53801459D01*
X81700500Y-53801456D01*
X81662052Y-53608170D01*
X81662051Y-53608169D01*
X81662051Y-53608165D01*
X81647053Y-53571956D01*
X81586635Y-53426092D01*
X81586628Y-53426079D01*
X81477139Y-53262218D01*
X81477136Y-53262214D01*
X81337785Y-53122863D01*
X81337781Y-53122860D01*
X81173920Y-53013371D01*
X81173907Y-53013364D01*
X80991839Y-52937950D01*
X80991829Y-52937947D01*
X80798543Y-52899500D01*
X80798541Y-52899500D01*
X80601459Y-52899500D01*
X80601457Y-52899500D01*
X80408170Y-52937947D01*
X80408160Y-52937950D01*
X80226092Y-53013364D01*
X80226079Y-53013371D01*
X80062218Y-53122860D01*
X80062214Y-53122863D01*
X79922863Y-53262214D01*
X79922860Y-53262218D01*
X79813371Y-53426079D01*
X79813364Y-53426092D01*
X79737950Y-53608160D01*
X79737947Y-53608170D01*
X79699500Y-53801456D01*
X79699500Y-53801459D01*
X79699500Y-59498541D01*
X79699500Y-59498543D01*
X79699499Y-59498543D01*
X62351164Y-59498543D01*
X62333342Y-59463566D01*
X62323849Y-59450500D01*
X62194517Y-59272490D01*
X62027510Y-59105483D01*
X61836433Y-58966657D01*
X61759603Y-58927510D01*
X61625996Y-58859433D01*
X61401368Y-58786446D01*
X61168097Y-58749500D01*
X61168092Y-58749500D01*
X60931908Y-58749500D01*
X60931903Y-58749500D01*
X60698631Y-58786446D01*
X60474003Y-58859433D01*
X60263566Y-58966657D01*
X60154550Y-59045862D01*
X60072490Y-59105483D01*
X60072488Y-59105485D01*
X60072487Y-59105485D01*
X59905485Y-59272487D01*
X59905485Y-59272488D01*
X59905483Y-59272490D01*
X59856023Y-59340566D01*
X59766657Y-59463566D01*
X59659433Y-59674003D01*
X59586446Y-59898631D01*
X59549500Y-60131902D01*
X59549500Y-60225500D01*
X59529815Y-60292539D01*
X59477011Y-60338294D01*
X59425500Y-60349500D01*
X55107045Y-60349500D01*
X55107025Y-60349501D01*
X55014764Y-60349501D01*
X54622124Y-60380403D01*
X54622123Y-60380403D01*
X54233116Y-60442015D01*
X53850148Y-60533958D01*
X53850142Y-60533959D01*
X53850137Y-60533961D01*
X53850125Y-60533965D01*
X53475559Y-60655667D01*
X53111677Y-60806393D01*
X52760730Y-60985209D01*
X52760725Y-60985212D01*
X52424932Y-61190987D01*
X52424921Y-61190995D01*
X52106291Y-61422492D01*
X52106277Y-61422502D01*
X51806791Y-61678289D01*
X51806775Y-61678304D01*
X51726037Y-61759040D01*
X51726025Y-61759054D01*
X51703862Y-61781218D01*
X51703858Y-61781220D01*
X51528284Y-61956795D01*
X51528283Y-61956796D01*
X51272503Y-62256276D01*
X51272492Y-62256290D01*
X51040994Y-62574920D01*
X51040987Y-62574931D01*
X50835212Y-62910723D01*
X50835209Y-62910730D01*
X50835204Y-62910739D01*
X50835202Y-62910743D01*
X50717108Y-63142516D01*
X50656393Y-63261675D01*
X50656387Y-63261688D01*
X50505666Y-63625559D01*
X50383964Y-64000125D01*
X50383957Y-64000148D01*
X50292014Y-64383116D01*
X50246973Y-64667499D01*
X50217044Y-64730634D01*
X50157732Y-64767565D01*
X50087870Y-64766567D01*
X50029637Y-64727957D01*
X50001523Y-64663994D01*
X50000500Y-64648101D01*
X50000500Y-55002561D01*
X50000606Y-54997437D01*
X50007105Y-54840316D01*
X51749500Y-54840316D01*
X51749500Y-55159683D01*
X51780803Y-55477522D01*
X51843109Y-55790754D01*
X51935820Y-56096382D01*
X52058040Y-56391446D01*
X52058042Y-56391451D01*
X52208584Y-56673094D01*
X52208601Y-56673122D01*
X52386012Y-56938638D01*
X52386029Y-56938661D01*
X52588638Y-57185540D01*
X52814459Y-57411361D01*
X52814464Y-57411365D01*
X52814465Y-57411366D01*
X53061344Y-57613975D01*
X53061351Y-57613980D01*
X53061361Y-57613987D01*
X53326877Y-57791398D01*
X53326882Y-57791401D01*
X53326894Y-57791409D01*
X53326903Y-57791413D01*
X53326905Y-57791415D01*
X53608548Y-57941957D01*
X53608550Y-57941957D01*
X53608556Y-57941961D01*
X53903619Y-58064180D01*
X54209240Y-58156889D01*
X54522477Y-58219196D01*
X54840313Y-58250500D01*
X54840316Y-58250500D01*
X55159684Y-58250500D01*
X55159687Y-58250500D01*
X55477523Y-58219196D01*
X55790760Y-58156889D01*
X56096381Y-58064180D01*
X56391444Y-57941961D01*
X56597349Y-57831902D01*
X63249500Y-57831902D01*
X63249500Y-58068097D01*
X63286446Y-58301368D01*
X63359433Y-58525996D01*
X63466657Y-58736433D01*
X63605483Y-58927510D01*
X63772490Y-59094517D01*
X63963567Y-59233343D01*
X64062991Y-59284002D01*
X64174003Y-59340566D01*
X64174005Y-59340566D01*
X64174008Y-59340568D01*
X64294412Y-59379689D01*
X64398631Y-59413553D01*
X64631903Y-59450500D01*
X64631908Y-59450500D01*
X67068097Y-59450500D01*
X67301368Y-59413553D01*
X67525992Y-59340568D01*
X67736433Y-59233343D01*
X67927510Y-59094517D01*
X68094517Y-58927510D01*
X68233343Y-58736433D01*
X68340568Y-58525992D01*
X68413553Y-58301368D01*
X68436436Y-58156890D01*
X68450500Y-58068097D01*
X68450500Y-57831902D01*
X68413553Y-57598631D01*
X68350370Y-57404175D01*
X68340568Y-57374008D01*
X68340566Y-57374005D01*
X68340566Y-57374003D01*
X68272435Y-57240290D01*
X68233343Y-57163567D01*
X68094517Y-56972490D01*
X67927510Y-56805483D01*
X67736433Y-56666657D01*
X67525996Y-56559433D01*
X67301368Y-56486446D01*
X67068097Y-56449500D01*
X67068092Y-56449500D01*
X64631908Y-56449500D01*
X64631903Y-56449500D01*
X64398631Y-56486446D01*
X64174003Y-56559433D01*
X63963566Y-56666657D01*
X63897066Y-56714973D01*
X63772490Y-56805483D01*
X63772488Y-56805485D01*
X63772487Y-56805485D01*
X63605485Y-56972487D01*
X63605485Y-56972488D01*
X63605483Y-56972490D01*
X63545862Y-57054550D01*
X63466657Y-57163566D01*
X63359433Y-57374003D01*
X63286446Y-57598631D01*
X63249500Y-57831902D01*
X56597349Y-57831902D01*
X56673106Y-57791409D01*
X56704015Y-57770755D01*
X56774091Y-57723934D01*
X56938638Y-57613987D01*
X56938637Y-57613987D01*
X56938656Y-57613975D01*
X57185535Y-57411366D01*
X57411366Y-57185535D01*
X57613975Y-56938656D01*
X57791409Y-56673106D01*
X57941961Y-56391444D01*
X58064180Y-56096381D01*
X58156889Y-55790760D01*
X58219196Y-55477523D01*
X58250500Y-55159687D01*
X58250500Y-54840313D01*
X58219196Y-54522477D01*
X58156889Y-54209240D01*
X58064180Y-53903619D01*
X57941961Y-53608556D01*
X57941749Y-53608160D01*
X57791415Y-53326905D01*
X57791413Y-53326903D01*
X57791409Y-53326894D01*
X57778895Y-53308165D01*
X57613987Y-53061361D01*
X57613980Y-53061351D01*
X57613975Y-53061344D01*
X57411366Y-52814465D01*
X57411365Y-52814464D01*
X57411361Y-52814459D01*
X57185540Y-52588638D01*
X56938661Y-52386029D01*
X56938638Y-52386012D01*
X56673122Y-52208601D01*
X56673094Y-52208584D01*
X56391451Y-52058042D01*
X56391446Y-52058040D01*
X56096382Y-51935820D01*
X55790754Y-51843109D01*
X55477521Y-51780803D01*
X55477522Y-51780803D01*
X55238141Y-51757227D01*
X55159687Y-51749500D01*
X54840313Y-51749500D01*
X54767822Y-51756639D01*
X54522477Y-51780803D01*
X54209245Y-51843109D01*
X53903617Y-51935820D01*
X53608553Y-52058040D01*
X53608548Y-52058042D01*
X53326905Y-52208584D01*
X53326877Y-52208601D01*
X53061361Y-52386012D01*
X53061338Y-52386029D01*
X52814459Y-52588638D01*
X52588638Y-52814459D01*
X52386029Y-53061338D01*
X52386012Y-53061361D01*
X52208601Y-53326877D01*
X52208584Y-53326905D01*
X52058042Y-53608548D01*
X52058040Y-53608553D01*
X51935820Y-53903617D01*
X51843109Y-54209245D01*
X51780803Y-54522477D01*
X51770238Y-54629751D01*
X51750305Y-54832145D01*
X51749500Y-54840316D01*
X50007105Y-54840316D01*
X50015815Y-54629716D01*
X50016177Y-54624098D01*
X50023531Y-54540031D01*
X50024003Y-54535582D01*
X50064218Y-54212959D01*
X50065138Y-54206842D01*
X50079003Y-54128210D01*
X50079732Y-54124428D01*
X50147553Y-53800974D01*
X50149123Y-53794394D01*
X50167614Y-53725385D01*
X50168500Y-53722251D01*
X50265389Y-53396810D01*
X50267685Y-53389862D01*
X50287331Y-53335886D01*
X50288276Y-53333380D01*
X50416976Y-53003551D01*
X50420079Y-52996292D01*
X50434634Y-52965080D01*
X50435415Y-52963445D01*
X50600823Y-52625097D01*
X50605690Y-52616105D01*
X50811973Y-52269918D01*
X50817556Y-52261372D01*
X51051728Y-51933394D01*
X51057996Y-51925342D01*
X51318443Y-51617832D01*
X51325362Y-51610316D01*
X51610316Y-51325362D01*
X51617832Y-51318443D01*
X51925342Y-51057996D01*
X51933394Y-51051728D01*
X52261372Y-50817556D01*
X52269918Y-50811973D01*
X52616116Y-50605683D01*
X52625097Y-50600823D01*
X52963445Y-50435415D01*
X52965080Y-50434634D01*
X52996292Y-50420079D01*
X53003551Y-50416976D01*
X53333380Y-50288276D01*
X53335886Y-50287331D01*
X53389862Y-50267685D01*
X53396810Y-50265389D01*
X53722251Y-50168500D01*
X53725385Y-50167614D01*
X53794394Y-50149123D01*
X53800974Y-50147553D01*
X54124428Y-50079732D01*
X54128210Y-50079003D01*
X54206842Y-50065138D01*
X54212959Y-50064218D01*
X54535582Y-50024003D01*
X54540031Y-50023531D01*
X54624098Y-50016177D01*
X54629716Y-50015815D01*
X54997437Y-50000605D01*
X55002561Y-50000500D01*
X124997439Y-50000500D01*
X125002562Y-50000605D01*
G37*
%TD.AperFunction*%
%TD*%
M02*
