M48
; DRILL file {KiCad 9.0.0} date 2025-05-24T18:13:53+0200
; FORMAT={-:-/ absolute / inch / decimal}
; #@! TF.CreationDate,2025-05-24T18:13:53+02:00
; #@! TF.GenerationSoftware,Kicad,Pcbnew,9.0.0
; #@! TF.FileFunction,Plated,1,2,PTH
FMAT,2
INCH
; #@! TA.AperFunction,Plated,PTH,ViaDrill
T1C0.0157
; #@! TA.AperFunction,Plated,PTH,ComponentDrill
T2C0.0315
; #@! TA.AperFunction,Plated,PTH,ComponentDrill
T3C0.0394
; #@! TA.AperFunction,Plated,PTH,ComponentDrill
T4C0.0472
; #@! TA.AperFunction,Plated,PTH,ComponentDrill
T5C0.0551
; #@! TA.AperFunction,Plated,PTH,ComponentDrill
T6C0.0787
; #@! TA.AperFunction,Plated,PTH,ComponentDrill
T7C0.0945
; #@! TA.AperFunction,Plated,PTH,ComponentDrill
T8C0.1260
%
G90
G05
T1
X2.0945Y-2.7638
X2.1102Y-4.0512
X2.126Y-2.4803
X2.2402Y-3.0945
X2.2638Y-4.2165
X2.281Y-2.6417
X2.3504Y-3.6102
X2.4094Y-3.126
X2.4606Y-4.3543
X2.4646Y-2.126
X2.5394Y-3.189
X2.6969Y-4.0866
X2.7913Y-3.5827
X2.8292Y-3.187
X2.8307Y-5.0
X2.8647Y-2.8996
X2.8686Y-2.9665
X2.9213Y-4.378
X2.9391Y-3.2068
X2.9409Y-5.1102
X2.9843Y-2.5394
X3.0Y-4.9252
X3.0157Y-2.0866
X3.0157Y-2.5669
X3.0748Y-4.4567
X3.0748Y-4.6614
X3.0866Y-3.5157
X3.1772Y-2.122
X3.1772Y-2.3386
X3.2008Y-2.9724
X3.2087Y-3.6378
X3.2244Y-2.4921
X3.2441Y-2.1486
X3.2953Y-3.4764
X3.3071Y-2.1457
X3.3425Y-3.9961
X3.3504Y-2.9724
X3.3858Y-2.2598
X3.4055Y-4.2126
X3.4488Y-3.8898
X3.4843Y-2.9606
X3.5157Y-2.752
X3.5748Y-2.4134
X3.6417Y-2.4449
X3.6417Y-2.6024
X3.6496Y-2.7559
X3.6575Y-2.0187
X3.6969Y-2.4961
X3.6969Y-2.6024
X3.7126Y-3.7559
X3.7441Y-2.4961
X3.7441Y-2.6024
X3.815Y-2.4724
X3.8583Y-2.1001
X3.9173Y-2.2432
X3.9173Y-2.378
X4.0276Y-2.5551
X4.0866Y-4.0709
X4.1457Y-2.7795
X4.1654Y-2.4173
X4.2101Y-2.3622
X4.2677Y-4.4252
X4.3583Y-3.5315
X4.3858Y-4.0354
X4.3976Y-2.1102
X4.3976Y-2.4764
X4.4016Y-2.8701
X4.5787Y-3.622
X4.6063Y-4.0039
X4.6142Y-3.0197
T2
X2.5143Y-2.7579
X2.5143Y-2.8957
X2.5454Y-3.3898
X2.6832Y-3.3898
T3
X3.1972Y-3.1068
X3.1972Y-3.2068
X3.2972Y-3.1068
X3.2972Y-3.2068
X3.3972Y-3.1068
X3.3972Y-3.2068
X3.4972Y-3.1068
X3.4972Y-3.2068
X3.5972Y-3.1068
X3.5972Y-3.2068
X3.6972Y-3.1068
X3.6972Y-3.2068
X3.7972Y-3.1068
X3.7972Y-3.2068
X3.8972Y-3.1068
X3.8972Y-3.2068
T4
X2.6969Y-3.7067
X2.6969Y-4.2087
T7
X2.9528Y-3.7047
X2.9528Y-4.2047
T8
X2.1654Y-2.1654
X2.1654Y-5.7087
X3.5433Y-5.7087
X4.9213Y-2.1654
X4.9213Y-5.7087
T3
G00X2.4035Y-2.4587
M15
G01X2.4035Y-2.372
M16
G05
G00X2.6358Y-2.2815
M15
G01X2.5492Y-2.2815
M16
G05
G00X2.6437Y-2.5295
M15
G01X2.5413Y-2.5295
M16
G05
T5
G00X2.2037Y-4.6018
M15
G01X2.0856Y-4.6018
M16
G05
G00X2.2037Y-5.2407
M15
G01X2.0856Y-5.2407
M16
G05
G00X2.4537Y-4.6018
M15
G01X2.3356Y-4.6018
M16
G05
G00X2.4537Y-5.2407
M15
G01X2.3356Y-5.2407
M16
G05
G00X2.7037Y-4.6018
M15
G01X2.5856Y-4.6018
M16
G05
G00X2.7037Y-5.2407
M15
G01X2.5856Y-5.2407
M16
G05
G00X4.3829Y-4.6018
M15
G01X4.501Y-4.6018
M16
G05
G00X4.3829Y-5.2407
M15
G01X4.501Y-5.2407
M16
G05
G00X4.6329Y-4.6018
M15
G01X4.751Y-4.6018
M16
G05
G00X4.6329Y-5.2407
M15
G01X4.751Y-5.2407
M16
G05
G00X4.8829Y-4.6018
M15
G01X5.001Y-4.6018
M16
G05
G00X4.8829Y-5.2407
M15
G01X5.001Y-5.2407
M16
G05
T6
G00X3.2638Y-4.7638
M15
G01X3.2638Y-4.7244
M16
G05
G00X3.2638Y-5.0787
M15
G01X3.2638Y-5.1181
M16
G05
G00X3.5433Y-4.7244
M15
G01X3.5433Y-4.7638
M16
G05
G00X3.5433Y-5.0787
M15
G01X3.5433Y-5.1181
M16
G05
G00X3.8228Y-4.7638
M15
G01X3.8228Y-4.7244
M16
G05
G00X3.8228Y-5.0787
M15
G01X3.8228Y-5.1181
M16
G05
M30
