%TF.GenerationSoftware,KiCad,Pcbnew,9.0.0*%
%TF.CreationDate,2025-05-24T18:13:52+02:00*%
%TF.ProjectId,tube_screamer,74756265-5f73-4637-9265-616d65722e6b,rev?*%
%TF.SameCoordinates,Original*%
%TF.FileFunction,Soldermask,Top*%
%TF.FilePolarity,Negative*%
%FSLAX46Y46*%
G04 Gerber Fmt 4.6, Leading zero omitted, Abs format (unit mm)*
G04 Created by KiCad (PCBNEW 9.0.0) date 2025-05-24 18:13:52*
%MOMM*%
%LPD*%
G01*
G04 APERTURE LIST*
G04 Aperture macros list*
%AMRoundRect*
0 Rectangle with rounded corners*
0 $1 Rounding radius*
0 $2 $3 $4 $5 $6 $7 $8 $9 X,Y pos of 4 corners*
0 Add a 4 corners polygon primitive as box body*
4,1,4,$2,$3,$4,$5,$6,$7,$8,$9,$2,$3,0*
0 Add four circle primitives for the rounded corners*
1,1,$1+$1,$2,$3*
1,1,$1+$1,$4,$5*
1,1,$1+$1,$6,$7*
1,1,$1+$1,$8,$9*
0 Add four rect primitives between the rounded corners*
20,1,$1+$1,$2,$3,$4,$5,0*
20,1,$1+$1,$4,$5,$6,$7,0*
20,1,$1+$1,$6,$7,$8,$9,0*
20,1,$1+$1,$8,$9,$2,$3,0*%
G04 Aperture macros list end*
%ADD10RoundRect,0.237500X-0.250000X-0.237500X0.250000X-0.237500X0.250000X0.237500X-0.250000X0.237500X0*%
%ADD11C,2.500000*%
%ADD12RoundRect,0.150000X0.150000X-0.587500X0.150000X0.587500X-0.150000X0.587500X-0.150000X-0.587500X0*%
%ADD13RoundRect,0.237500X0.237500X-0.250000X0.237500X0.250000X-0.237500X0.250000X-0.237500X-0.250000X0*%
%ADD14RoundRect,0.237500X0.250000X0.237500X-0.250000X0.237500X-0.250000X-0.237500X0.250000X-0.237500X0*%
%ADD15RoundRect,0.237500X0.237500X-0.300000X0.237500X0.300000X-0.237500X0.300000X-0.237500X-0.300000X0*%
%ADD16RoundRect,0.112500X0.112500X-0.187500X0.112500X0.187500X-0.112500X0.187500X-0.112500X-0.187500X0*%
%ADD17RoundRect,0.150000X0.587500X0.150000X-0.587500X0.150000X-0.587500X-0.150000X0.587500X-0.150000X0*%
%ADD18RoundRect,0.237500X-0.300000X-0.237500X0.300000X-0.237500X0.300000X0.237500X-0.300000X0.237500X0*%
%ADD19C,2.600000*%
%ADD20R,3.000000X3.000000*%
%ADD21C,3.000000*%
%ADD22RoundRect,0.237500X0.300000X0.237500X-0.300000X0.237500X-0.300000X-0.237500X0.300000X-0.237500X0*%
%ADD23C,3.600000*%
%ADD24C,5.500000*%
%ADD25RoundRect,0.237500X-0.237500X0.250000X-0.237500X-0.250000X0.237500X-0.250000X0.237500X0.250000X0*%
%ADD26RoundRect,0.237500X-0.237500X0.300000X-0.237500X-0.300000X0.237500X-0.300000X0.237500X0.300000X0*%
%ADD27RoundRect,0.150000X-0.587500X-0.150000X0.587500X-0.150000X0.587500X0.150000X-0.587500X0.150000X0*%
%ADD28RoundRect,0.112500X-0.112500X0.187500X-0.112500X-0.187500X0.112500X-0.187500X0.112500X0.187500X0*%
%ADD29RoundRect,1.000000X1.000000X1.500000X-1.000000X1.500000X-1.000000X-1.500000X1.000000X-1.500000X0*%
%ADD30RoundRect,1.000000X-1.000000X-1.500000X1.000000X-1.500000X1.000000X1.500000X-1.000000X1.500000X0*%
%ADD31RoundRect,0.900000X1.800000X0.600000X-1.800000X0.600000X-1.800000X-0.600000X1.800000X-0.600000X0*%
%ADD32RoundRect,0.250000X0.600000X-0.600000X0.600000X0.600000X-0.600000X0.600000X-0.600000X-0.600000X0*%
%ADD33C,1.700000*%
%ADD34RoundRect,0.150000X-0.150000X0.587500X-0.150000X-0.587500X0.150000X-0.587500X0.150000X0.587500X0*%
%ADD35RoundRect,0.900000X-1.800000X-0.600000X1.800000X-0.600000X1.800000X0.600000X-1.800000X0.600000X0*%
%ADD36R,1.600000X1.600000*%
%ADD37C,1.600000*%
%ADD38RoundRect,0.150000X0.825000X0.150000X-0.825000X0.150000X-0.825000X-0.150000X0.825000X-0.150000X0*%
%ADD39R,4.600000X2.000000*%
%ADD40O,4.200000X2.000000*%
%ADD41O,2.000000X4.200000*%
G04 APERTURE END LIST*
D10*
%TO.C,R3*%
X100687500Y-53642632D03*
X102512500Y-53642632D03*
%TD*%
D11*
%TO.C,J8*%
X68500000Y-106900000D03*
%TD*%
D12*
%TO.C,Q6*%
X55150000Y-73137500D03*
X57050000Y-73137500D03*
X56100000Y-71262500D03*
%TD*%
D13*
%TO.C,R16*%
X65862500Y-79062500D03*
X65862500Y-77237500D03*
%TD*%
D14*
%TO.C,R17*%
X108912500Y-61400000D03*
X107087500Y-61400000D03*
%TD*%
D13*
%TO.C,R28*%
X79600000Y-124312500D03*
X79600000Y-122487500D03*
%TD*%
D15*
%TO.C,C6*%
X90000000Y-74062500D03*
X90000000Y-72337500D03*
%TD*%
D12*
%TO.C,Q12*%
X54150000Y-78637500D03*
X56050000Y-78637500D03*
X55100000Y-76762500D03*
%TD*%
D16*
%TO.C,D2*%
X104900000Y-59192632D03*
X104900000Y-57092632D03*
%TD*%
D17*
%TO.C,Q14*%
X54037500Y-65850000D03*
X54037500Y-63950000D03*
X52162500Y-64900000D03*
%TD*%
D13*
%TO.C,R25*%
X90900000Y-54287500D03*
X90900000Y-52462500D03*
%TD*%
D18*
%TO.C,C13*%
X69000000Y-81000000D03*
X70725000Y-81000000D03*
%TD*%
D19*
%TO.C,BT1*%
X113900000Y-111550000D03*
X99150000Y-89350000D03*
X85900000Y-111550000D03*
D20*
X75000000Y-94100000D03*
D21*
X75000000Y-106800000D03*
%TD*%
D22*
%TO.C,C10*%
X102462500Y-55342632D03*
X100737500Y-55342632D03*
%TD*%
D15*
%TO.C,C14*%
X82400000Y-57562500D03*
X82400000Y-55837500D03*
%TD*%
D23*
%TO.C,H2*%
X125000000Y-55000000D03*
D24*
X125000000Y-55000000D03*
%TD*%
D23*
%TO.C,H3*%
X55000000Y-145000000D03*
D24*
X55000000Y-145000000D03*
%TD*%
D18*
%TO.C,C18*%
X65637500Y-81000000D03*
X67362500Y-81000000D03*
%TD*%
D25*
%TO.C,R7*%
X88500000Y-72287500D03*
X88500000Y-74112500D03*
%TD*%
D14*
%TO.C,R27*%
X56112500Y-80400000D03*
X54287500Y-80400000D03*
%TD*%
D18*
%TO.C,C16*%
X69800000Y-73550000D03*
X71525000Y-73550000D03*
%TD*%
D26*
%TO.C,C3*%
X100700000Y-57180132D03*
X100700000Y-58905132D03*
%TD*%
D27*
%TO.C,Q13*%
X52162500Y-67350000D03*
X52162500Y-69250000D03*
X54037500Y-68300000D03*
%TD*%
D14*
%TO.C,R2*%
X108712500Y-57342632D03*
X106887500Y-57342632D03*
%TD*%
D11*
%TO.C,J7*%
X68500000Y-94150000D03*
%TD*%
D26*
%TO.C,C7*%
X88500000Y-57580132D03*
X88500000Y-59305132D03*
%TD*%
D28*
%TO.C,D1*%
X102700000Y-57092632D03*
X102700000Y-59192632D03*
%TD*%
D18*
%TO.C,C15*%
X69800000Y-75350000D03*
X71525000Y-75350000D03*
%TD*%
D22*
%TO.C,C4*%
X96862500Y-61500000D03*
X95137500Y-61500000D03*
%TD*%
D27*
%TO.C,Q8*%
X56062500Y-67350000D03*
X56062500Y-69250000D03*
X57937500Y-68300000D03*
%TD*%
D10*
%TO.C,R4*%
X95087500Y-59900000D03*
X96912500Y-59900000D03*
%TD*%
D25*
%TO.C,R26*%
X91500000Y-72287500D03*
X91500000Y-74112500D03*
%TD*%
D17*
%TO.C,Q3*%
X69700000Y-79100000D03*
X69700000Y-77200000D03*
X67825000Y-78150000D03*
%TD*%
D13*
%TO.C,R6*%
X88500000Y-55855132D03*
X88500000Y-54030132D03*
%TD*%
D29*
%TO.C,SW1*%
X82900000Y-120500000D03*
D30*
X90000000Y-120500000D03*
D29*
X97100000Y-120500000D03*
D30*
X97100000Y-129500000D03*
X90000000Y-129500000D03*
X82900000Y-129500000D03*
%TD*%
D23*
%TO.C,H5*%
X125000000Y-145000000D03*
D24*
X125000000Y-145000000D03*
%TD*%
D26*
%TO.C,C11*%
X78300000Y-66237500D03*
X78300000Y-67962500D03*
%TD*%
D25*
%TO.C,R13*%
X114700000Y-62487500D03*
X114700000Y-64312500D03*
%TD*%
D27*
%TO.C,Q2*%
X76862500Y-58492632D03*
X76862500Y-60392632D03*
X78737500Y-59442632D03*
%TD*%
D25*
%TO.C,R22*%
X80800000Y-55787500D03*
X80800000Y-57612500D03*
%TD*%
D31*
%TO.C,J2*%
X60825000Y-133115000D03*
X60825000Y-116885000D03*
X54475000Y-133115000D03*
X54475000Y-116885000D03*
X67175000Y-133115000D03*
X67175000Y-116885000D03*
%TD*%
D25*
%TO.C,R20*%
X76600000Y-61887500D03*
X76600000Y-63712500D03*
%TD*%
D15*
%TO.C,C12*%
X74300000Y-60405132D03*
X74300000Y-58680132D03*
%TD*%
D23*
%TO.C,H4*%
X90000000Y-145000000D03*
D24*
X90000000Y-145000000D03*
%TD*%
D13*
%TO.C,R23*%
X84000000Y-57612500D03*
X84000000Y-55787500D03*
%TD*%
D25*
%TO.C,R15*%
X114700000Y-55687500D03*
X114700000Y-57512500D03*
%TD*%
D32*
%TO.C,J9*%
X81210000Y-81452500D03*
D33*
X81210000Y-78912500D03*
X83750000Y-81452500D03*
X83750000Y-78912500D03*
X86290000Y-81452500D03*
X86290000Y-78912500D03*
X88830000Y-81452500D03*
X88830000Y-78912500D03*
X91370000Y-81452500D03*
X91370000Y-78912500D03*
X93910000Y-81452500D03*
X93910000Y-78912500D03*
X96450000Y-81452500D03*
X96450000Y-78912500D03*
X98990000Y-81452500D03*
X98990000Y-78912500D03*
%TD*%
D14*
%TO.C,R48*%
X105987500Y-55342632D03*
X104162500Y-55342632D03*
%TD*%
D15*
%TO.C,C9*%
X114700000Y-60862500D03*
X114700000Y-59137500D03*
%TD*%
D34*
%TO.C,Q1*%
X112600000Y-59450000D03*
X110700000Y-59450000D03*
X111650000Y-61325000D03*
%TD*%
D18*
%TO.C,C1*%
X106937500Y-59042632D03*
X108662500Y-59042632D03*
%TD*%
D35*
%TO.C,J1*%
X119175000Y-116885000D03*
X119175000Y-133115000D03*
X125525000Y-116885000D03*
X125525000Y-133115000D03*
X112825000Y-116885000D03*
X112825000Y-133115000D03*
%TD*%
D25*
%TO.C,R47*%
X86300000Y-72287500D03*
X86300000Y-74112500D03*
%TD*%
D17*
%TO.C,Q10*%
X57937500Y-65850000D03*
X57937500Y-63950000D03*
X56062500Y-64900000D03*
%TD*%
D36*
%TO.C,C8*%
X68152651Y-86100000D03*
D37*
X64652651Y-86100000D03*
%TD*%
D38*
%TO.C,U1*%
X97875000Y-58247632D03*
X97875000Y-56977632D03*
X97875000Y-55707632D03*
X97875000Y-54437632D03*
X92925000Y-54437632D03*
X92925000Y-55707632D03*
X92925000Y-56977632D03*
X92925000Y-58247632D03*
%TD*%
D25*
%TO.C,R11*%
X78300000Y-61887500D03*
X78300000Y-63712500D03*
%TD*%
D15*
%TO.C,C17*%
X90800000Y-60162500D03*
X90800000Y-58437500D03*
%TD*%
D13*
%TO.C,R21*%
X76600000Y-68012500D03*
X76600000Y-66187500D03*
%TD*%
D39*
%TO.C,J6*%
X65850000Y-64250000D03*
D40*
X65850000Y-57950000D03*
D41*
X61050000Y-61350000D03*
%TD*%
D36*
%TO.C,C2*%
X63862500Y-73550000D03*
D37*
X63862500Y-70050000D03*
%TD*%
D23*
%TO.C,H1*%
X55000000Y-55000000D03*
D24*
X55000000Y-55000000D03*
%TD*%
D13*
%TO.C,R14*%
X88500000Y-62712500D03*
X88500000Y-60887500D03*
%TD*%
D14*
%TO.C,R19*%
X78512500Y-57000000D03*
X76687500Y-57000000D03*
%TD*%
%TO.C,R24*%
X56925000Y-75000000D03*
X55100000Y-75000000D03*
%TD*%
M02*
